<?xml version="1.0" encoding="utf-8"?>
<!-- Generator: Adobe Illustrator 14.0.0, SVG Export Plug-In . SVG Version: 6.00 Build 43363)  -->
<!DOCTYPE svg PUBLIC "-//W3C//DTD SVG 1.1//EN" "http://www.w3.org/Graphics/SVG/1.1/DTD/svg11.dtd">
<svg version="1.1" id="Layer_2" xmlns="http://www.w3.org/2000/svg" xmlns:xlink="http://www.w3.org/1999/xlink" x="0px" y="0px"
	 width="383.667px" height="91.484px" viewBox="0 0 383.667 91.484" enable-background="new 0 0 383.667 91.484"
	 xml:space="preserve">
<g>
	<g>
		<g>
			<path fill="#FF1D25" d="M56.739,90.484h25.368v-2.93h2.93V68.047h-2.93v-2.931H71.388v7.79h5.859v9.788H61.599V55.327h15.648
				v2.93h7.79v-7.789h-2.93v-2.93H56.739v2.93h-2.93v37.087h2.93V90.484L56.739,90.484z M83.107,91.484H55.739v-2.93h-2.93V49.468
				h2.93v-2.93h27.368v2.93h2.93v9.789h-9.79v-2.93H62.599v25.367h13.648v-7.788h-5.859v-9.79h12.719v2.931h2.93v21.508h-2.93
				V91.484L83.107,91.484z"/>
		</g>
		<g>
			<path fill="#FF1D25" d="M97.755,64.116h13.648v-7.789H97.755V64.116L97.755,64.116z M121.193,91.484h-9.79V73.906H97.755v17.578
				h-9.789V49.468h2.93v-2.93h27.368v2.93h2.93V91.484L121.193,91.484z M112.404,90.484h7.79V50.468h-2.93v-2.93H91.896v2.93h-2.93
				v40.017h7.789V72.906h15.648V90.484L112.404,90.484z M112.404,65.116H96.755v-9.789h15.648V65.116L112.404,65.116z"/>
		</g>
		<g>
			<path fill="#FF1D25" d="M153.421,90.484h7.789V47.538h-7.789v2.93h-2.93v5.859h-2.93v5.859h-2.93v5.86h-3.93v-5.86h-2.93v-5.859
				h-2.93v-5.859h-2.93v-2.93h-7.79v42.946h7.79V67.047h3.93v2.929h2.93v5.859h2.93v2.931h1.93v-2.931h2.93v-5.859h2.93v-2.929h3.93
				V90.484L153.421,90.484z M162.21,91.484h-9.789V68.047h-1.93v2.929h-2.93v5.859h-2.93v2.931h-3.93v-2.931h-2.93v-5.859h-2.93
				v-2.929h-1.93v23.438h-9.79V46.538h9.79v2.93h2.93v5.859h2.93v5.859h2.93v5.86h1.93v-5.86h2.93v-5.859h2.93v-5.859h2.93v-2.93
				h9.789V91.484L162.21,91.484z"/>
		</g>
		<g>
			<path fill="#FF1D25" d="M168.069,90.484h14.149h14.149v-7.79h-11.719h-11.719v-9.788h14.649v-7.79h-14.649v-9.789h11.719h11.719
				v-7.789h-14.149h-14.149v2.93h-2.93v18.543v18.543h2.93V90.484L168.069,90.484z M197.367,91.484h-30.298v-2.93h-2.93V49.468h2.93
				v-2.93h30.298v9.789h-23.438v7.789h14.649v9.79h-14.649v7.788h23.438V91.484L197.367,91.484z"/>
		</g>
		<g>
			<path fill="#FF1D25" d="M223.734,81.694h13.65V56.327h-13.65V81.694L223.734,81.694z M244.244,91.484h-27.369v-2.93h-2.93V49.468
				h2.93v-2.93h27.369v2.93h2.93v39.087h-2.93V91.484L244.244,91.484z M217.875,90.484h25.369v-2.93h2.93V50.468h-2.93v-2.93
				h-25.369v2.93h-2.93v37.087h2.93V90.484L217.875,90.484z M238.385,82.694h-15.65V55.327h15.65V82.694L238.385,82.694z"/>
		</g>
		<g>
			<path fill="#FF1D25" d="M261.822,90.484h7.789v-2.93h2.93v-5.86h2.93v-2.929h2.93v-5.859h2.93V47.538h-7.789v26.368h-2.93v5.859
				h-2.93v2.929h-3.93v-2.929h-2.93v-5.859h-2.93V47.538h-7.789v25.368h2.93v5.859h2.93v2.929h2.93v5.86h2.93V90.484L261.822,90.484
				z M270.611,91.484h-9.789v-2.93h-2.93v-5.86h-2.93v-2.929h-2.93v-5.859h-2.93V46.538h9.789v26.368h2.93v5.859h2.93v2.929h1.93
				v-2.929h2.93v-5.859h2.93V46.538h9.789v27.368h-2.93v5.859h-2.93v2.929h-2.93v5.86h-2.93V91.484L270.611,91.484z"/>
		</g>
		<g>
			<path fill="#FF1D25" d="M288.189,90.484h14.148h14.148v-7.79h-11.719h-11.719v-9.788h14.648v-7.79h-14.648v-9.789h11.719h11.719
				v-7.789h-14.148h-14.148v2.93h-2.93v18.543v18.543h2.93V90.484L288.189,90.484z M317.486,91.484h-30.297v-2.93h-2.93V49.468h2.93
				v-2.93h30.297v9.789h-23.438v7.789h14.648v9.79h-14.648v7.788h23.438V91.484L317.486,91.484z"/>
		</g>
		<g>
			<path fill="#FF1D25" d="M329.205,64.116h13.65v-7.789h-13.65V64.116L329.205,64.116z M352.645,91.484h-9.789V73.906h-13.65
				v17.578h-9.789V46.538h30.299v2.93h2.93v18.579h-2.93v1.929h2.93V91.484L352.645,91.484z M343.855,90.484h7.789V70.976h-2.93
				v-3.929h2.93V50.468h-2.93v-2.93h-28.299v42.946h7.789V72.906h15.65V90.484L343.855,90.484z M343.855,65.116h-15.65v-9.789h15.65
				V65.116L343.855,65.116z"/>
		</g>
	</g>
	<g>
		<g>
			<path fill="#E31A3D" stroke="#FF1D25" stroke-width="0.1111" d="M51.688,42.367h25.583l0.351,2.604h2.956v2.915l0.415,2.522
				v2.216l-5.589,0.931H73.84l-0.437-2.604h-4.018l-2.481-0.415h-9.328l-0.737,4.405v23.257l2.422,0.399h13.413l0.149-0.931v-8.681
				l-0.055-0.333h-5.427l-0.557-0.098v-8.072h11.133l0.055,0.319v2.674l0.17,0.027h2.849v19.572l-2.604,0.337v2.941h-2.496
				l-2.038,0.415H51.688l0,0v-3.02h-3.019V45.386h3.019V42.367z M77.058,84.543H52.73v-2.604h-2.604V47.195h2.604v-2.604h24.327
				v2.604h2.604v8.702H70.96v-2.604H58.828v22.549H70.96v-6.923h-5.208v-8.702h11.306v2.605h2.604v19.118h-2.604V84.543
				L77.058,84.543z"/>
		</g>
		<path fill="#E31A3D" stroke="#FF1D25" stroke-width="0.1111" d="M93.958,51.425v8.169h14.207v-8.169H93.958z M115.876,84.543
			h-8.702V68.918H95.042v15.625h-8.701V47.195h2.604v-2.604h24.327v2.604h2.604V84.543L115.876,84.543z M108.063,83.655h6.924
			v-35.57h-2.604V45.48H89.834v2.604H87.23v35.57h6.924V68.03h13.91V83.655L108.063,83.655z M108.063,59.888h-13.91v-8.702h13.91
			V59.888L108.063,59.888z M98.488,67.68V61.87h0.415v-0.415h3.735v0.415h0.415v5.811h-1.245v-2.49h-2.075v2.49H98.488z"/>
		<g>
			<path fill="#E31A3D" stroke="#FF1D25" stroke-width="0.1111" d="M121.132,42.367h8.026l0.143,0.94v1.93l0.94,0.149h1.929
				l0.15,0.907v4.987l0.94,0.145h1.929l0.15,0.907v4.987l0.94,0.145h1.929l0.15,0.907v4.987l0.881,0.145h3.026v-6.039h3.02v-6.039
				h3.02V45.61l0.039-0.224h2.661l0.319-0.051v-2.562l0.067-0.407h8.102v44.4h-8.063l0,0l-0.106-0.601V62.614h-3.167l-0.74,0.113
				v2.301l-0.096,0.604h-2.421l-0.502,0.077v5.738l-0.038,0.224h-2.869l-0.112,0.018v3.002h-1.99l-0.141-0.882v-1.998l-0.882-0.141
				h-1.997l-0.141-0.907v-4.986l-0.94-0.145h-1.929l-0.15-0.94v-1.928l-0.954-0.15h-2.954v23.507l-0.106,0.646h-8.063V42.367z
				 M157.713,84.543h-8.701V63.71h-1.715v2.604h-2.604v5.208h-2.604v2.605h-3.493v-2.605h-2.604v-5.208h-2.604V63.71h-1.715v20.833
				h-8.702V44.591h8.702v2.604h2.604v5.208h2.604v5.208h2.604v5.209h1.715v-5.209h2.604v-5.208h2.605v-5.208h2.604v-2.604h8.701
				V84.543L157.713,84.543z"/>
		</g>
		<g>
			<path fill="#E31A3D" stroke="#FF1D25" stroke-width="0.1111" d="M166.421,42.367h14.652h14.651v7.893l-2.008,0.276h-9.58h-4.016
				h-7.856l-0.695,4.961v4.261l5.146,0.724h8.979l0.971,6.924l-6.74,1.246h-7.44l-0.917,4.96v4.436l2.957,0.55h8.831h1.827h10.54
				v8.17h-14.651h-14.652l0,0v-3.02h-3.019V64.567V45.386h3.019V42.367z M194.342,84.543H167.41v-2.604h-2.604V47.195h2.604v-2.604
				h26.932v8.701h-20.834v6.924h13.021v8.702h-13.021v6.923h20.834V84.543L194.342,84.543z"/>
		</g>
		<path fill="#E31A3D" stroke="#FF1D25" stroke-width="0.1111" d="M223.787,51.425v26.284h14.209V51.425H223.787z M243.043,84.543
			h-24.328v-2.604h-2.605V47.195h2.605v-2.604h24.328v2.604h2.604v34.744h-2.604V84.543L243.043,84.543z M219.604,83.655h22.551
			V81.05h2.604V48.084h-2.604V45.48h-22.551v2.604h-2.605V81.05h2.605V83.655L219.604,83.655z M237.834,76.73h-13.912V52.404h13.912
			V76.73L237.834,76.73z M229.105,67.68v-0.415h-0.414V61.87h0.414v-0.415h3.736v0.415h0.414v5.396h-0.414v0.415H229.105z"/>
		<g>
			<path fill="#E31A3D" stroke="#FF1D25" stroke-width="0.1111" d="M250.961,42.367h8.17v27.174h3.02v6.039h3.018v3.018h3.027
				l0.881-0.141v-1.996l0.141-0.881h1.998l0.881-0.145v-4.987l0.15-0.907h1.93l0.939-0.151V43.257l0.143-0.89h8.025v26.285h-3.018
				v6.038h-3.02v3.019h-3.02v6.039h-3.02v3.02h-8.109l0,0l-0.059-0.32v-2.672l-0.172-0.027h-2.848v-6.039H257V74.69h-3.02v-6.038
				h-3.02V42.367z M271.443,84.543h-8.701v-2.604h-2.604V76.73h-2.605v-2.603h-2.604v-5.208h-2.604V44.591h8.701V68.03h2.604v5.208
				h2.605v2.604h1.715v-2.604h2.604V68.03h2.604V44.591h8.703v24.327h-2.605v5.208h-2.604v2.603h-2.604v5.209h-2.605V84.543
				L271.443,84.543z"/>
		</g>
		<g>
			<path fill="#E31A3D" stroke="#FF1D25" stroke-width="0.1111" d="M290.211,42.367h14.652h14.652v7.893l-2.01,0.276h-9.578h-4.018
				h-7.855l-0.693,4.961v4.261l5.145,0.724h8.98l0.971,6.924l-6.74,1.246h-7.439l-0.916,4.96v4.436l2.957,0.55h8.83h1.826h10.541
				v8.17h-14.652h-14.652l0,0v-3.02h-3.02V64.567V45.386h3.02V42.367z M318.074,84.543h-26.93v-2.604h-2.605V47.195h2.605v-2.604
				h26.93v8.701H297.24v6.924h13.021v8.702H297.24v6.923h20.834V84.543L318.074,84.543z"/>
		</g>
		<path fill="#E31A3D" stroke="#FF1D25" stroke-width="0.1111" d="M332.48,51.425v8.169h14.209v-8.169H332.48z M354.291,84.543
			h-8.703V68.918h-12.133v15.625h-8.701V44.591h26.932v2.604h2.605V63.71h-2.605v1.714h2.605V84.543L354.291,84.543z
			 M346.479,83.655h6.922V66.313h-2.604v-3.492h2.604V48.084h-2.604V45.48h-25.154v38.175h6.924V68.03h13.912V83.655L346.479,83.655
			z M346.479,59.888h-13.912v-8.702h13.912V59.888L346.479,59.888z M337.699,67.68v-6.226h4.15v0.415h0.414v2.49h-0.414v0.415h0.414
			v2.905h-1.244v-2.49h-2.076v2.49H337.699z"/>
	</g>
	<g>
		<g>
			<path fill="#C61755" stroke="#FF1D25" stroke-width="0.2222" d="M47.14,37.196h25.796l0.703,2.279h2.98v3.017l0.83,2.207v2.292
				l-4.89,1.862h-1.625l-0.874-2.279h-4.168l-2.172-0.83h-9.666L52.579,49.6v24.102l2.12,0.799h13.903l0.298-0.814V64.69
				l-0.108-0.292h-5.621l-0.487-0.195v-8.354H74.23l0.11,0.28v2.775l0.149,0.055h2.959v19.635l-2.278,0.674v2.952h-2.65l-1.783,0.83
				H47.14l0,0v-3.108H44.03V40.305h3.109V37.196z M71.509,77.603H50.223v-2.279h-2.278V44.923h2.278v-2.278h21.286v2.278h2.279
				v7.614h-7.614v-2.279H55.559v19.73h10.615v-6.058h-4.558v-7.614h9.893v2.279h2.279v16.728h-2.279V77.603L71.509,77.603z"/>
		</g>
		<path fill="#C61755" stroke="#FF1D25" stroke-width="0.2222" d="M90.662,46.522v8.548h14.767v-8.548H90.662z M111.06,77.603
			h-7.613V63.931H92.83v13.672h-7.613v-32.68h2.278v-2.278h21.286v2.278h2.278V77.603L111.06,77.603z M104.224,76.825h6.059V45.701
			h-2.278v-2.279h-19.73v2.279h-2.279v31.124h6.059V63.153h12.171V76.825L104.224,76.825z M104.224,54.659H92.053v-7.614h12.171
			V54.659L104.224,54.659z M93.225,66.349V54.728h0.83v-0.831h7.471v0.831h0.83v11.621h-2.49v-4.98h-4.15v4.98H93.225z"/>
		<g>
			<path fill="#C61755" stroke="#FF1D25" stroke-width="0.2222" d="M118.642,37.196h8.263l0.286,0.823v1.986l0.822,0.3h1.986
				l0.3,0.793v5.135l0.823,0.289h1.986l0.3,0.794v5.134l0.822,0.29h1.986l0.3,0.794v5.135l0.771,0.29h3.115V52.74h3.108v-6.218
				h3.109V40.5l0.076-0.195h2.753l0.279-0.102v-2.651l0.134-0.356h8.415V83.05h-8.336l0,0l-0.213-0.526V58.181h-3.238l-0.648,0.227
				v2.353l-0.192,0.528h-2.477l-0.439,0.153v5.869l-0.077,0.195h-2.934l-0.099,0.036v3.074h-2.05l-0.281-0.771v-2.057l-0.771-0.281
				h-2.056l-0.281-0.793v-5.135l-0.822-0.289h-1.986l-0.3-0.823V58.48l-0.835-0.3h-3.052v24.304l-0.213,0.565h-8.336V37.196z
				 M153.717,77.603h-7.613V59.374h-1.501v2.278h-2.279v4.557h-2.278v2.279h-3.057v-2.279h-2.278v-4.557h-2.279v-2.278h-1.501
				v18.229h-7.613V42.645h7.613v2.278h2.279v4.558h2.278v4.557h2.278v4.558h1.501v-4.558h2.279V49.48h2.278v-4.558h2.279v-2.278
				h7.613V77.603L153.717,77.603z"/>
		</g>
		<g>
			<path fill="#C61755" stroke="#FF1D25" stroke-width="0.2222" d="M165.273,37.196h15.155h15.155v7.996l-1.758,0.553h-9.699h-4.064
				h-7.961l-1.389,4.341V54.4l4.503,1.448h9.1l1.941,6.059l-5.896,2.49h-7.814l-1.833,4.34v4.664l2.588,1.099h9.27h1.923h11.091
				v8.549h-15.155h-15.155l0,0v-3.108h-3.108V60.124V40.305h3.108V37.196z M191.816,77.603h-23.564v-2.279h-2.278V44.923h2.278
				v-2.278h23.564v7.613h-18.229v6.059h11.394v7.614h-11.394v6.058h18.229V77.603L191.816,77.603z"/>
		</g>
		<path fill="#C61755" stroke="#FF1D25" stroke-width="0.2222" d="M224.341,46.522v27.201h14.768V46.522H224.341z M242.342,77.603
			h-21.287v-2.279h-2.279V44.923h2.279v-2.278h21.287v2.278h2.278v30.401h-2.278V77.603L242.342,77.603z M221.832,76.825h19.731
			v-2.279h2.279V45.701h-2.279v-2.279h-19.731v2.279h-2.278v28.845h2.278V76.825L221.832,76.825z M237.784,70.766h-12.173V49.48
			h12.173V70.766L237.784,70.766z M228.061,66.349v-0.83h-0.83V54.728h0.83v-0.831h7.472v0.831h0.83v10.791h-0.83v0.83H228.061z"/>
		<g>
			<path fill="#C61755" stroke="#FF1D25" stroke-width="0.2222" d="M252.32,37.196h8.549v27.979h3.108v6.217h3.109v3.108h3.115
				l0.771-0.281v-2.056l0.28-0.771h2.057l0.771-0.289V65.97l0.3-0.794h1.986l0.822-0.302V37.975l0.286-0.779h8.263v27.202h-3.108
				v6.217h-3.109v3.108h-3.108v6.218h-3.108v3.108h-8.429l0,0l-0.12-0.279v-2.775l-0.149-0.054h-2.96v-6.218h-3.108v-3.108h-3.108
				v-6.217h-3.109V37.196z M272.777,77.603h-7.613v-2.279h-2.279v-4.558h-2.278v-2.278h-2.278v-4.557h-2.279V42.645h7.614v20.508
				h2.278v4.557h2.278v2.278h1.501V67.71H272v-4.557h2.278V42.645h7.613v21.286h-2.278v4.557h-2.278v2.278h-2.279v4.558h-2.278
				V77.603L272.777,77.603z"/>
		</g>
		<g>
			<path fill="#C61755" stroke="#FF1D25" stroke-width="0.2222" d="M292.734,37.196h15.154h15.155v7.996l-1.758,0.553h-9.698h-4.064
				h-7.961l-1.389,4.341V54.4l4.503,1.448h9.1l1.941,6.059l-5.897,2.49h-7.813l-1.833,4.34v4.664l2.588,1.099h9.269h1.924h11.09
				v8.549h-15.155h-15.154l0,0v-3.108h-3.108V60.124V40.305h3.108V37.196z M319.163,77.603H295.6v-2.279h-2.279V44.923h2.279v-2.278
				h23.563v7.613h-18.229v6.059h11.393v7.614h-11.393v6.058h18.229V77.603L319.163,77.603z"/>
		</g>
		<path fill="#C61755" stroke="#FF1D25" stroke-width="0.2222" d="M336.257,46.522v8.548h14.768v-8.548H336.257z M356.437,77.603
			h-7.613V63.931h-10.617v13.672h-7.614V42.645h23.566v2.278h2.278v14.451h-2.278v1.5h2.278V77.603L356.437,77.603z M349.601,76.825
			h6.059V61.651h-2.279v-3.056h2.279V45.701h-2.279v-2.279h-22.01v33.403h6.058V63.153h12.173V76.825L349.601,76.825z
			 M349.601,54.659h-12.173v-7.614h12.173V54.659L349.601,54.659z M339.422,66.349V53.897h8.301v0.831h0.83v4.98h-0.83v0.83h0.83
			v5.811h-2.49v-4.98h-4.15v4.98H339.422z"/>
	</g>
	<g>
		<g>
			<path fill="#AA136E" stroke="#FF1D25" stroke-width="0.3333" d="M42.589,32.025H68.6l1.054,1.953h3.007v3.12l1.245,1.892v2.369
				l-4.192,2.793h-1.687l-1.312-1.953h-4.317l-1.861-1.245H50.532l-2.212,3.304v24.948l1.817,1.199H64.53l0.448-0.698v-9.313
				l-0.164-0.25h-5.815l-0.418-0.293v-8.636h11.961l0.166,0.24v2.878l0.128,0.082h3.07v19.7l-1.953,1.011v2.964h-2.806l-1.528,1.245
				h-25.03l0,0v-3.198h-3.198V35.224h3.198V32.025z M65.96,70.662H47.715v-1.953h-1.953V42.65h1.953v-1.953H65.96v1.953h1.953v6.526
				h-6.526v-1.953h-9.099v16.911h9.099v-5.192h-3.906v-6.527h8.479v1.954h1.953v14.338H65.96V70.662L65.96,70.662z"/>
		</g>
		<path fill="#AA136E" stroke="#FF1D25" stroke-width="0.3333" d="M87.366,41.62v8.928h15.325V41.62H87.366z M106.243,70.662h-6.526
			V58.943h-9.099v11.719h-6.526V42.65h1.953v-1.953h18.245v1.953h1.953V70.662L106.243,70.662z M100.383,69.995h5.193V43.317h-1.953
			v-1.953H86.711v1.953h-1.953v26.678h5.193V58.276h10.432V69.995L100.383,69.995z M100.383,49.43H89.951v-6.526h10.432V49.43
			L100.383,49.43z M87.961,65.018V47.586h1.245v-1.245h11.207v1.245h1.245v17.432h-3.735v-7.471h-6.226v7.471H87.961z"/>
		<g>
			<path fill="#AA136E" stroke="#FF1D25" stroke-width="0.3333" d="M116.15,32.025h8.5l0.429,0.705v2.044l0.705,0.449h2.043
				l0.45,0.681v5.282l0.705,0.434h2.043l0.45,0.681v5.282l0.705,0.434h2.043l0.45,0.681v5.283l0.661,0.434h3.204v-6.397h3.198V41.62
				h3.199v-6.229l0.115-0.168h2.844l0.239-0.152v-2.741l0.201-0.305h8.727v47.308h-8.609l0,0l-0.319-0.451V53.748h-3.31l-0.555,0.34
				v2.404l-0.289,0.453h-2.534l-0.376,0.23v5.999l-0.115,0.167h-3l-0.084,0.054v3.146h-2.11l-0.422-0.662v-2.116l-0.661-0.422
				h-2.115l-0.422-0.68v-5.282l-0.705-0.434h-2.043l-0.45-0.705v-2.043l-0.716-0.449h-3.149v25.101l-0.318,0.485h-8.61V32.025z
				 M149.72,70.662h-6.526V55.037h-1.287v1.953h-1.953v3.906h-1.953v1.954h-2.62v-1.954h-1.953v-3.906h-1.953v-1.953h-1.286v15.625
				h-6.526V40.697h6.526v1.953h1.953v3.906h1.953v3.906h1.953v3.907h1.286v-3.907h1.953v-3.906h1.954V42.65h1.953v-1.953h6.526
				V70.662L149.72,70.662z"/>
		</g>
		<g>
			<path fill="#AA136E" stroke="#FF1D25" stroke-width="0.3333" d="M164.125,32.025h15.659h15.658v8.099l-1.506,0.829h-9.82h-4.112
				h-8.065l-2.083,3.721v4.368l3.86,2.173h9.22l2.912,5.193l-5.055,3.736h-8.188l-2.749,3.72v4.892l2.218,1.649h9.708h2.021h11.64
				v8.929h-15.658h-15.659l0,0v-3.198h-3.198V55.68V35.224h3.198V32.025z M189.292,70.662h-20.199v-1.953h-1.953V42.65h1.953v-1.953
				h20.199v6.526h-15.625v5.192h9.766v6.527h-9.766v5.192h15.625V70.662L189.292,70.662z"/>
		</g>
		<path fill="#AA136E" stroke="#FF1D25" stroke-width="0.3333" d="M224.893,41.62v28.118h15.326V41.62H224.893z M241.641,70.662
			h-18.246v-1.953h-1.953V42.65h1.953v-1.953h18.246v1.953h1.953v26.058h-1.953V70.662L241.641,70.662z M224.061,69.995h16.912
			v-1.953h1.953V43.317h-1.953v-1.953h-16.912v1.953h-1.953v24.725h1.953V69.995L224.061,69.995z M237.734,64.801h-10.434V46.557
			h10.434V64.801L237.734,64.801z M227.016,65.018v-1.245h-1.246V47.586h1.246v-1.245h11.205v1.245h1.246v16.187h-1.246v1.245
			H227.016z"/>
		<g>
			<path fill="#AA136E" stroke="#FF1D25" stroke-width="0.3333" d="M253.68,32.025h8.928v28.785h3.197v6.396h3.199v3.198h3.203
				l0.662-0.422v-2.115l0.422-0.661h2.115l0.66-0.434v-5.283l0.449-0.68h2.045l0.705-0.453V32.693l0.428-0.667h8.5v28.119h-3.199
				v6.396h-3.197v3.197h-3.199v6.397H275.4v3.198h-8.748l0,0l-0.18-0.24v-2.877l-0.129-0.082h-3.07v-6.397h-3.197v-3.197h-3.199
				v-6.396h-3.197V32.025z M274.109,70.662h-6.525v-1.953h-1.953v-3.907h-1.953v-1.953h-1.953v-3.906h-1.953V40.697h6.525v17.579
				h1.953v3.906h1.953v1.952h1.287v-1.952h1.953v-3.906h1.953V40.697h6.525v18.246h-1.953v3.906h-1.953v1.953h-1.953v3.907h-1.953
				V70.662L274.109,70.662z"/>
		</g>
		<g>
			<path fill="#AA136E" stroke="#FF1D25" stroke-width="0.3333" d="M295.256,32.025h15.658h15.658v8.099l-1.506,0.829h-9.82h-4.111
				h-8.064l-2.084,3.721v4.368l3.859,2.173h9.219l2.914,5.193l-5.055,3.736h-8.189l-2.748,3.72v4.892l2.219,1.649h9.707h2.02h11.641
				v8.929h-15.658h-15.658l0,0v-3.198h-3.197V55.68V35.224h3.197V32.025z M320.252,70.662h-20.199v-1.953H298.1V42.65h1.953v-1.953
				h20.199v6.526h-15.625v5.192h9.766v6.527h-9.766v5.192h15.625V70.662L320.252,70.662z"/>
		</g>
		<path fill="#AA136E" stroke="#FF1D25" stroke-width="0.3333" d="M340.031,41.62v8.928h15.326V41.62H340.031z M358.582,70.662
			h-6.525V58.943h-9.102v11.719h-6.525V40.697h20.199v1.953h1.953v12.386h-1.953v1.286h1.953V70.662L358.582,70.662z
			 M352.723,69.995h5.193V56.989h-1.953V54.37h1.953V43.317h-1.953v-1.953h-18.867v28.631h5.193V58.276h10.434V69.995
			L352.723,69.995z M352.723,49.43h-10.434v-6.526h10.434V49.43L352.723,49.43z M341.145,65.018V46.341h12.451v1.245h1.246v7.471
			h-1.246v1.245h1.246v8.716h-3.736v-7.471h-6.227v7.471H341.145z"/>
	</g>
	<g>
		<g>
			<path fill="#8E1086" stroke="#FF1D25" stroke-width="0.4444" d="M37.839,26.854h26.226l1.404,1.627h3.033v3.223l1.66,1.577v2.445
				l-3.493,3.724h-1.748l-1.748-1.627h-4.468l-1.551-1.66H46.81l-2.95,2.753v25.793l1.515,1.599h14.883l0.598-0.582v-9.628
				l-0.219-0.208h-6.009l-0.349-0.391v-8.918h12.375l0.222,0.2v2.98l0.106,0.109h3.181v19.764l-1.627,1.348v2.976h-2.961
				l-1.273,1.66H37.839l0,0v-3.288h-3.287V30.143h3.287V26.854z M60.211,63.721H45.007v-1.627h-1.628V40.378h1.628V38.75h15.204
				v1.627h1.628v5.438H56.4v-1.627h-7.583v14.093H56.4v-4.327h-3.256v-5.439h7.066v1.628h1.628v11.949h-1.628V63.721L60.211,63.721z
				"/>
		</g>
		<path fill="#8E1086" stroke="#FF1D25" stroke-width="0.4444" d="M83.869,36.718v9.308h15.883v-9.308H83.869z M101.227,63.721
			h-5.439v-9.766h-7.582v9.766h-5.438V40.378h1.628V38.75h15.204v1.627h1.628V63.721L101.227,63.721z M96.343,63.165h4.328V40.934
			h-1.628v-1.627H84.95v1.627h-1.628v22.231h4.327v-9.766h8.693V63.165L96.343,63.165z M96.343,44.202h-8.693v-5.438h8.693V44.202
			L96.343,44.202z M82.497,63.687V40.444h1.66v-1.66H99.1v1.66h1.66v23.243h-4.98v-9.961h-8.301v9.961H82.497z"/>
		<g>
			<path fill="#8E1086" stroke="#FF1D25" stroke-width="0.4444" d="M113.459,26.854h8.737l0.571,0.587v2.101l0.588,0.6h2.101
				l0.6,0.567v5.43l0.587,0.578h2.102l0.599,0.567v5.43l0.588,0.579h2.101l0.6,0.567v5.431l0.551,0.578h3.293v-6.576h3.287v-6.576
				h3.288v-6.436l0.153-0.14h2.936l0.199-0.204v-2.83l0.268-0.254h9.04v48.762h-8.883l0,0l-0.425-0.376V49.314h-3.381l-0.462,0.454
				v2.456l-0.386,0.377h-2.589l-0.314,0.306v6.129l-0.152,0.14h-3.065l-0.069,0.071v3.217h-2.17l-0.563-0.551v-2.175l-0.551-0.563
				h-2.175l-0.563-0.567v-5.43l-0.587-0.578h-2.102l-0.599-0.588v-2.1l-0.597-0.599h-3.247v25.898l-0.425,0.404h-8.884V26.854z
				 M145.523,63.721h-5.438V50.7h-1.072v1.627h-1.627v3.255h-1.628v1.628h-2.184v-1.628h-1.627v-3.255h-1.628V50.7h-1.072v13.021
				h-5.438V38.75h5.438v1.627h1.628v3.255h1.628v3.255h1.627v3.256h1.072v-3.256h1.628v-3.255h1.628v-3.255h1.627V38.75h5.438
				V63.721L145.523,63.721z"/>
		</g>
		<g>
			<path fill="#8E1086" stroke="#FF1D25" stroke-width="0.4444" d="M162.776,26.854h16.162H195.1v8.203l-1.255,1.105h-9.939h-4.161
				h-8.17l-2.777,3.101v4.421l3.217,2.897h9.34l3.883,4.328l-4.212,4.98h-8.563l-3.665,3.1v5.119l1.848,2.199h10.147h2.117h12.19
				v9.309h-16.161h-16.162l0,0v-3.288h-3.287V51.236V30.143h3.287V26.854z M186.566,63.721h-16.833v-1.627h-1.627V40.378h1.627
				V38.75h16.833v5.438h-13.021v4.327h8.138v5.439h-8.138v4.327h13.021V63.721L186.566,63.721z"/>
		</g>
		<path fill="#8E1086" stroke="#FF1D25" stroke-width="0.4444" d="M225.245,36.718v29.035h15.885V36.718H225.245z M240.738,63.721
			h-15.205v-1.627h-1.628V40.378h1.628V38.75h15.205v1.627h1.627v21.715h-1.627V63.721L240.738,63.721z M226.088,63.165h14.095
			v-1.627h1.627V40.934h-1.627v-1.627h-14.095v1.627h-1.627v20.604h1.627V63.165L226.088,63.165z M237.482,58.837h-8.694V43.633
			h8.694V58.837L237.482,58.837z M225.769,63.687v-1.66h-1.66V40.444h1.66v-1.66h14.941v1.66h1.66v21.583h-1.66v1.66H225.769z"/>
		<g>
			<path fill="#8E1086" stroke="#FF1D25" stroke-width="0.4444" d="M254.837,26.854h9.308v29.591h3.288v6.576h3.287v3.287h3.293
				l0.551-0.562v-2.174l0.563-0.551h2.175l0.551-0.579v-5.43l0.6-0.567h2.101l0.588-0.604v-28.43l0.571-0.556h8.736V55.89h-3.288
				v6.576h-3.288v3.287h-3.287v6.576h-3.288v3.288h-9.068l0,0l-0.239-0.2v-2.979l-0.107-0.109H264.7v-6.576h-3.288v-3.287h-3.287
				V55.89h-3.288V26.854z M275.242,63.721h-5.438v-1.627h-1.628v-3.256h-1.627V57.21h-1.628v-3.255h-1.628V38.75h5.438v14.649h1.628
				v3.255h1.628v1.627h1.071v-1.627h1.628v-3.255h1.628V38.75h5.438v15.205h-1.628v3.255h-1.628v1.627h-1.627v3.256h-1.628V63.721
				L275.242,63.721z"/>
		</g>
		<g>
			<path fill="#8E1086" stroke="#FF1D25" stroke-width="0.4444" d="M297.578,26.854h16.161H329.9v8.203l-1.255,1.105h-9.939h-4.161
				h-8.169l-2.778,3.101v4.421l3.217,2.897h9.34l3.883,4.328l-4.212,4.98h-8.562l-3.666,3.1v5.119l1.849,2.199h10.146h2.117h12.19
				v9.309h-16.161h-16.161l0,0v-3.288h-3.288V51.236V30.143h3.288V26.854z M321.14,63.721h-16.832v-1.627h-1.628V40.378h1.628V38.75
				h16.832v5.438h-13.021v4.327h8.139v5.439h-8.139v4.327h13.021V63.721L321.14,63.721z"/>
		</g>
		<path fill="#8E1086" stroke="#FF1D25" stroke-width="0.4444" d="M343.607,36.718v9.308h15.885v-9.308H343.607z M360.527,63.721
			h-5.438v-9.766h-7.583v9.766h-5.438V38.75H358.9v1.627h1.627V50.7H358.9v1.072h1.627V63.721L360.527,63.721z M355.645,63.165
			h4.327V52.327h-1.627v-2.183h1.627v-9.211h-1.627v-1.627h-15.722v23.859h4.327v-9.766h8.694V63.165L355.645,63.165z
			 M355.645,44.202h-8.694v-5.438h8.694V44.202L355.645,44.202z M342.666,63.687V38.784h16.603v1.66h1.66v9.961h-1.66v1.66h1.66
			v11.621h-4.98v-9.961h-8.302v9.961H342.666z"/>
	</g>
	<g>
		<g>
			<path fill="#710D9E" stroke="#FF1D25" stroke-width="0.5556" d="M31.219,21.684h26.438l1.757,1.302h3.059v3.325l2.075,1.261
				v2.522l-2.794,4.655h-1.81l-2.186-1.302h-4.618l-1.24-2.075H41.217l-3.688,2.203v26.639l1.211,1.999h15.374l0.746-0.465v-9.943
				l-0.272-0.167h-6.204l-0.279-0.489v-9.199h12.789l0.276,0.16v3.082l0.085,0.136h3.292v19.827l-1.302,1.685v2.986H60.13
				l-1.019,2.075H31.219l0,0v-3.377h-3.377V25.061h3.377V21.684z M52.591,56.78H40.428v-1.302h-1.302V38.106h1.302v-1.302h12.164
				v1.302h1.302v4.351h-4.351v-1.302h-6.066v11.274h6.066v-3.461h-2.604v-4.351h5.653v1.302h1.302v9.559h-1.302V56.78L52.591,56.78z
				"/>
		</g>
		<path fill="#710D9E" stroke="#FF1D25" stroke-width="0.5556" d="M78.502,31.816v9.687h16.442v-9.687H78.502z M94.338,56.78h-4.351
			v-7.813h-6.066v7.813h-4.351V38.106h1.302v-1.302h12.164v1.302h1.302V56.78L94.338,56.78z M90.432,56.335h3.462V38.55h-1.302
			v-1.302H81.317v1.302h-1.302v17.785h3.461v-7.813h6.955V56.335L90.432,56.335z M90.432,38.973h-6.955v-4.351h6.955V38.973
			L90.432,38.973z M75.163,62.356V33.303h2.075v-2.076h18.677v2.076h2.075v29.053h-6.226V49.904H81.389v12.452H75.163z"/>
		<g>
			<path fill="#710D9E" stroke="#FF1D25" stroke-width="0.5556" d="M108.898,21.684h8.974l0.714,0.47v2.158l0.47,0.749h2.158
				l0.749,0.454v5.578l0.47,0.724h2.158l0.75,0.453v5.578l0.47,0.723h2.158l0.749,0.454v5.579l0.441,0.723h3.381V38.57h3.377v-6.754
				h3.378v-6.643l0.191-0.112h3.026l0.16-0.254v-2.92l0.335-0.203h9.353v50.216h-9.157l0,0l-0.531-0.3V44.881h-3.451l-0.371,0.567
				v2.508l-0.481,0.302h-2.646l-0.251,0.383v6.26l-0.192,0.112h-3.129l-0.056,0.089v3.289h-2.23l-0.702-0.441v-2.234l-0.441-0.702
				h-2.233l-0.703-0.454v-5.578l-0.47-0.723h-2.158l-0.75-0.47V45.63l-0.477-0.75h-3.345v26.696l-0.531,0.323h-9.157V21.684z
				 M139.456,56.78h-4.351V46.363h-0.857v1.301h-1.303v2.604h-1.302v1.302h-1.747v-1.302h-1.302v-2.604h-1.302v-1.301h-0.858V56.78
				h-4.351V36.804h4.351v1.302h1.302v2.604h1.302v2.604h1.302v2.604h0.858v-2.604h1.302V40.71h1.302v-2.604h1.302v-1.302h4.351
				V56.78L139.456,56.78z"/>
		</g>
		<g>
			<path fill="#710D9E" stroke="#FF1D25" stroke-width="0.5556" d="M159.558,21.684h16.665h16.665v8.306l-1.004,1.382h-10.06h-4.209
				h-8.274l-3.472,2.48v4.475l2.573,3.622h9.46l4.854,3.462l-3.37,6.226h-8.936l-4.581,2.48v5.347l1.479,2.749h10.585h2.215h12.741
				v9.688h-16.665h-16.665l0,0v-3.377h-3.377V46.792v-21.73h3.377V21.684z M181.97,56.78h-13.465v-1.302h-1.302V38.106h1.302v-1.302
				h13.465v4.351h-10.417v3.462h6.511v4.351h-6.511v3.461h10.417V56.78L181.97,56.78z"/>
		</g>
		<path fill="#710D9E" stroke="#FF1D25" stroke-width="0.5556" d="M223.729,31.816v29.951h16.443V31.816H223.729z M237.965,56.78
			h-12.164v-1.302H224.5V38.106h1.301v-1.302h12.164v1.302h1.303v17.372h-1.303V56.78L237.965,56.78z M226.246,56.335h11.275v-1.302
			h1.303V38.55h-1.303v-1.302h-11.275v1.302h-1.303v16.483h1.303V56.335L226.246,56.335z M235.361,52.873h-6.955V40.709h6.955
			V52.873L235.361,52.873z M222.652,62.356v-2.075h-2.076V33.303h2.076v-2.076h18.678v2.076h2.074v26.978h-2.074v2.075H222.652z"/>
		<g>
			<path fill="#710D9E" stroke="#FF1D25" stroke-width="0.5556" d="M254.125,21.684h9.688V52.08h3.377v6.754h3.377v3.377h3.383
				l0.439-0.703v-2.233l0.703-0.441h2.232l0.441-0.723v-5.578l0.75-0.454h2.158l0.469-0.755V22.129l0.715-0.445h8.973v29.952h-3.377
				v6.754h-3.377v3.377h-3.377v6.755h-3.377v3.377h-9.389l0,0l-0.301-0.16v-3.081l-0.084-0.136h-3.293v-6.755h-3.377V58.39h-3.377
				v-6.754h-3.377V21.684z M274.504,56.78h-4.35v-1.302h-1.303v-2.604h-1.303v-1.302h-1.301v-2.604h-1.303V36.804h4.352v11.719
				h1.301v2.604h1.303v1.302h0.857v-1.302h1.303v-2.604h1.301V36.804h4.352v12.164h-1.303v2.604h-1.301v1.302h-1.303v2.604h-1.303
				V56.78L274.504,56.78z"/>
		</g>
		<g>
			<path fill="#710D9E" stroke="#FF1D25" stroke-width="0.5556" d="M298.029,21.684h16.664h16.666v8.306l-1.006,1.382h-10.059
				h-4.209h-8.273l-3.473,2.48v4.475l2.572,3.622h9.461l4.854,3.462l-3.369,6.226h-8.936l-4.582,2.48v5.347l1.479,2.749h10.584
				h2.217h12.74v9.688h-16.666h-16.664l0,0v-3.377h-3.377V46.792v-21.73h3.377V21.684z M320.156,56.78h-13.465v-1.302h-1.301V38.106
				h1.301v-1.302h13.465v4.351H309.74v3.462h6.51v4.351h-6.51v3.461h10.416V56.78L320.156,56.78z"/>
		</g>
		<path fill="#710D9E" stroke="#FF1D25" stroke-width="0.5556" d="M345.313,31.816v9.687h16.443v-9.687H345.313z M360.604,56.78
			h-4.352v-7.813h-6.066v7.813h-4.352V36.804h13.467v1.302h1.303v8.257h-1.303v0.857h1.303V56.78L360.604,56.78z M356.697,56.335
			h3.461v-8.671h-1.303v-1.746h1.303V38.55h-1.303v-1.302h-12.576v19.087h3.461v-7.813h6.957V56.335L356.697,56.335z
			 M356.697,38.973h-6.957v-4.351h6.957V38.973L356.697,38.973z M342.318,62.356V31.227h20.752v2.076h2.076v12.451h-2.076v2.075
			h2.076v14.527h-6.227V49.904h-10.375v12.452H342.318z"/>
	</g>
	<g>
		<g>
			<path fill="#550AB6" stroke="#FF1D25" stroke-width="0.6667" d="M24.598,16.513h26.653l2.107,0.977h3.085v3.428l2.49,0.946v2.599
				l-2.096,5.585h-1.871l-2.623-0.977h-4.768l-0.93-2.49H35.624l-4.426,1.652v27.484l0.909,2.398h15.863l0.896-0.349V47.507
				l-0.327-0.125h-6.397l-0.209-0.586v-9.481h13.203l0.331,0.12v3.184l0.063,0.164h3.403v19.891l-0.977,2.022v2.998h-3.271
				l-0.764,2.49H24.598l0,0v-3.467h-3.467V19.98h3.467V16.513z M44.972,49.839h-9.123v-0.977h-0.977V35.833h0.977v-0.977h9.123
				v0.977h0.977v3.263h-3.264V38.12h-4.549v8.456h4.549v-2.596h-1.953v-3.263h4.24v0.977h0.977v7.169h-0.977V49.839L44.972,49.839z"
				/>
		</g>
		<path fill="#550AB6" stroke="#FF1D25" stroke-width="0.6667" d="M73.135,26.914V36.98h17V26.914H73.135z M87.451,49.839h-3.264
			v-5.859h-4.549v5.859h-3.264V35.833h0.977v-0.977h9.123v0.977h0.977V49.839L87.451,49.839z M84.521,49.505h2.596V36.167h-0.977
			V35.19h-8.455v0.977h-0.977v13.339h2.596v-5.859h5.217V49.505L84.521,49.505z M84.521,33.745h-5.216v-3.263h5.216V33.745
			L84.521,33.745z M67.829,61.025V26.161h2.49V23.67h22.412v2.491h2.49v34.864h-7.471V46.083H75.3v14.942H67.829z"/>
		<g>
			<path fill="#550AB6" stroke="#FF1D25" stroke-width="0.6667" d="M104.336,16.513h9.211l0.856,0.353v2.215l0.353,0.899h2.216
				l0.898,0.34v5.726l0.353,0.868h2.216l0.898,0.34v5.726l0.353,0.868h2.216l0.898,0.34v5.726l0.331,0.868h3.47v-6.934h3.467v-6.934
				h3.467v-6.85l0.229-0.083h3.117l0.12-0.306v-3.009l0.401-0.152h9.666v51.67h-9.431l0,0l-0.637-0.226V40.448h-3.522l-0.277,0.681
				v2.56l-0.578,0.227h-2.701l-0.188,0.459v6.39l-0.229,0.084h-3.195l-0.042,0.106v3.36h-2.29l-0.843-0.331v-2.293l-0.331-0.843
				h-2.293l-0.843-0.34v-5.726l-0.353-0.867h-2.216l-0.898-0.353v-2.215l-0.358-0.899h-3.442V67.94l-0.637,0.242h-9.431V16.513z
				 M133.389,49.839h-3.263v-7.813h-0.644v0.976h-0.977v1.953h-0.977v0.977h-1.31v-0.977h-0.977v-1.953h-0.977v-0.976h-0.644v7.813
				h-3.264V34.857h3.264v0.977h0.977v1.953h0.977v1.953h0.977v1.953h0.644V39.74h0.977v-1.953h0.977v-1.953h0.977v-0.977h3.263
				V49.839L133.389,49.839z"/>
		</g>
		<g>
			<path fill="#550AB6" stroke="#FF1D25" stroke-width="0.6667" d="M156.339,16.513h17.168h17.168v8.409l-0.753,1.658h-10.18h-4.258
				h-8.379l-4.166,1.86v4.528l1.93,4.346h9.58l5.825,2.597l-2.527,7.471h-9.311l-5.497,1.86v5.575l1.108,3.298h11.024h2.312h13.291
				v10.068h-17.168h-17.168l0,0v-3.467h-3.467V42.348V19.98h3.467V16.513z M177.374,49.839h-10.1v-0.977h-0.977V35.833h0.977v-0.977
				h10.1v3.263h-7.813v2.597h4.884v3.263h-4.884v2.596h7.813V49.839L177.374,49.839z"/>
		</g>
		<path fill="#550AB6" stroke="#FF1D25" stroke-width="0.6667" d="M222.21,26.914v30.868h17.002V26.914H222.21z M235.193,49.839
			h-9.123v-0.977h-0.977V35.833h0.977v-0.977h9.123v0.977h0.977v13.029h-0.977V49.839L235.193,49.839z M226.404,49.505h8.456v-0.977
			h0.977V36.167h-0.977V35.19h-8.456v0.977h-0.977v12.362h0.977V49.505L226.404,49.505z M233.24,46.908h-5.217v-9.123h5.217V46.908
			L233.24,46.908z M219.535,61.025v-2.49h-2.49V26.161h2.49V23.67h22.413v2.491h2.49v32.374h-2.49v2.49H219.535z"/>
		<g>
			<path fill="#550AB6" stroke="#FF1D25" stroke-width="0.6667" d="M253.412,16.513h10.067v31.202h3.467v6.934h3.467v3.466h3.471
				l0.33-0.843v-2.293l0.843-0.331h2.293l0.331-0.868v-5.726l0.899-0.34h2.215l0.353-0.907V16.847l0.857-0.334h9.21v30.869h-3.467
				v6.934h-3.467v3.467h-3.467v6.934h-3.467v3.467h-9.708l0,0l-0.36-0.12v-3.184l-0.063-0.164h-3.403v-6.934h-3.467v-3.467h-3.467
				v-6.934h-3.467V16.513z M273.767,49.839h-3.263v-0.977h-0.977v-1.954h-0.977v-0.976h-0.977v-1.953h-0.977v-9.123h3.263v8.789
				h0.977v1.953h0.977v0.977h0.644v-0.977h0.977v-1.953h0.977v-8.789h3.263v9.123h-0.977v1.953h-0.977v0.976h-0.977v1.954h-0.977
				V49.839L273.767,49.839z"/>
		</g>
		<g>
			<path fill="#550AB6" stroke="#FF1D25" stroke-width="0.6667" d="M298.481,16.513h17.167h17.168v8.409l-0.753,1.658h-10.179
				h-4.258h-8.379l-4.166,1.86v4.528l1.93,4.346h9.58l5.824,2.597l-2.527,7.471h-9.309l-5.498,1.86v5.575l1.108,3.298h11.023h2.313
				h13.29v10.068h-17.168h-17.167l0,0v-3.467h-3.467V42.348V19.98h3.467V16.513z M319.175,49.839h-10.099v-0.977H308.1V35.833h0.977
				v-0.977h10.099v3.263h-7.813v2.597h4.883v3.263h-4.883v2.596h7.813V49.839L319.175,49.839z"/>
		</g>
		<path fill="#550AB6" stroke="#FF1D25" stroke-width="0.6667" d="M347.018,26.914V36.98h17.002V26.914H347.018z M360.678,49.839
			h-3.263v-5.859h-4.55v5.859h-3.264V34.857h10.1v0.977h0.977v6.193h-0.977v0.643h0.977V49.839L360.678,49.839z M357.748,49.505
			h2.597v-6.503h-0.977v-1.31h0.977v-5.526h-0.977V35.19h-9.433v14.315h2.596v-5.859h5.217V49.505L357.748,49.505z M357.748,33.745
			h-5.217v-3.263h5.217V33.745L357.748,33.745z M341.971,61.025V23.67h24.902v2.491h2.49v14.941h-2.49v2.49h2.49v17.432h-7.471
			V46.083h-12.451v14.942H341.971z"/>
	</g>
	<g>
		<g>
			<path fill="#3906CF" stroke="#FF1D25" stroke-width="0.7778" d="M17.977,11.341h26.867l2.459,0.651h3.111v3.531l2.905,0.63v2.675
				l-1.397,6.517h-1.933l-3.06-0.651h-4.917l-0.62-2.905H30.03l-5.163,1.101v28.33l0.605,2.798h16.354l1.044-0.233V43.21
				l-0.381-0.083h-6.592l-0.139-0.684V32.68h13.617l0.387,0.08v3.287l0.043,0.19h3.514v19.956l-0.651,2.358v3.01h-3.425
				l-0.509,2.905H17.977l0,0v-3.557H14.42V14.898h3.556V11.341z M37.352,42.897H31.27v-0.651h-0.651v-8.686h0.651v-0.651h6.082
				v0.651h0.651v2.175h-2.175v-0.651h-3.033v5.637h3.033v-1.73h-1.302v-2.176h2.827v0.651h0.651v4.78h-0.651V42.897L37.352,42.897z"
				/>
		</g>
		<path fill="#3906CF" stroke="#FF1D25" stroke-width="0.7778" d="M67.767,22.011v10.447h17.559V22.011H67.767z M80.563,42.897
			h-2.176v-3.906h-3.033v3.906h-2.175v-9.337h0.651v-0.651h6.082v0.651h0.651V42.897L80.563,42.897z M78.609,42.675h1.731v-8.893
			h-0.651v-0.651h-5.637v0.651h-0.651v8.893h1.731v-3.906h3.477V42.675L78.609,42.675z M78.609,28.515h-3.478V26.34h3.478V28.515
			L78.609,28.515z M60.494,59.693V19.019h2.905v-2.905h26.148v2.905h2.905v40.675h-8.716V42.261H69.21v17.432H60.494z"/>
		<g>
			<path fill="#3906CF" stroke="#FF1D25" stroke-width="0.7778" d="M99.774,11.341h9.447l1,0.235v2.273l0.235,1.049h2.272
				l1.049,0.227v5.873l0.235,1.013h2.272l1.049,0.227v5.874l0.235,1.012h2.272l1.049,0.227v5.875l0.22,1.012h3.558v-7.113h3.556
				v-7.112h3.557v-7.057l0.268-0.056h3.208l0.08-0.356v-3.099l0.469-0.102h9.978v53.124h-9.704l0,0l-0.743-0.15V36.014h-3.593
				l-0.185,0.794v2.611l-0.674,0.151h-2.758l-0.125,0.536v6.521l-0.268,0.056h-3.26l-0.028,0.125v3.432h-2.351l-0.983-0.221v-2.353
				l-0.221-0.983h-2.352l-0.984-0.227v-5.874l-0.235-1.012h-2.272L114,39.335v-2.272l-0.239-1.049h-3.54v28.29l-0.743,0.162h-9.704
				V11.341z M127.321,42.897h-2.175v-5.208h-0.429v0.651h-0.651v1.302h-0.651v0.651h-0.874v-0.651h-0.651V38.34h-0.651v-0.651
				h-0.429v5.208h-2.176v-9.988h2.176v0.651h0.651v1.302h0.651v1.302h0.651v1.302h0.429v-1.302h0.651v-1.302h0.651v-1.302h0.651
				v-0.651h2.175V42.897L127.321,42.897z"/>
		</g>
		<g>
			<path fill="#3906CF" stroke="#FF1D25" stroke-width="0.7778" d="M153.12,11.341h17.671h17.671v8.513l-0.502,1.935h-10.3h-4.306
				h-8.483l-4.861,1.24v4.581l1.287,5.07h9.7l6.796,1.731l-1.685,8.716h-9.684l-6.414,1.24v5.803l0.739,3.849h11.462h2.409h13.841
				v10.447h-17.671H153.12l0,0v-3.557h-3.557V37.903V14.898h3.557V11.341z M172.777,42.897h-6.733v-0.651h-0.651v-8.686h0.651
				v-0.651h6.733v2.176h-5.208v1.73h3.255v2.176h-3.255v1.73h5.208V42.897L172.777,42.897z"/>
		</g>
		<path fill="#3906CF" stroke="#FF1D25" stroke-width="0.7778" d="M220.691,22.011v31.785h17.561V22.011H220.691z M232.42,42.897
			h-6.082v-0.651h-0.65v-8.686h0.65v-0.651h6.082v0.651h0.652v8.686h-0.652V42.897L232.42,42.897z M226.561,42.675h5.639v-0.651
			h0.65v-8.242h-0.65v-0.651h-5.639v0.651h-0.65v8.242h0.65V42.675L226.561,42.675z M231.119,40.943h-3.479v-6.082h3.479V40.943
			L231.119,40.943z M216.418,59.693v-2.905h-2.904v-37.77h2.904v-2.905h26.148v2.905h2.904v37.77h-2.904v2.905H216.418z"/>
		<g>
			<path fill="#3906CF" stroke="#FF1D25" stroke-width="0.7778" d="M252.699,11.341h10.447v32.008h3.557v7.113h3.555v3.556h3.561
				l0.219-0.984v-2.352l0.984-0.22h2.352l0.221-1.012v-5.874l1.049-0.227h2.273l0.234-1.058V11.564l1-0.223h9.447v31.786h-3.557
				v7.113h-3.557v3.556h-3.557v7.113h-3.557v3.557h-10.027l0,0l-0.42-0.08V61.1l-0.043-0.191h-3.512v-7.113h-3.557V50.24h-3.557
				v-7.113h-3.557V11.341z M273.027,42.897h-2.176v-0.651h-0.65v-1.302h-0.65v-0.651h-0.652v-1.302h-0.65v-6.082h2.176v5.86h0.65
				v1.302h0.652v0.65h0.428v-0.65h0.65v-1.302h0.652v-5.86h2.176v6.082h-0.652v1.302h-0.65v0.651h-0.65v1.302h-0.652V42.897
				L273.027,42.897z"/>
		</g>
		<g>
			<path fill="#3906CF" stroke="#FF1D25" stroke-width="0.7778" d="M298.932,11.341h17.672h17.67v8.513l-0.502,1.935h-10.299h-4.307
				h-8.482l-4.861,1.24v4.581l1.287,5.07h9.699l6.797,1.731l-1.686,8.716h-9.684l-6.414,1.24v5.803l0.74,3.849h11.461h2.41h13.84
				v10.447h-17.67h-17.672l0,0v-3.557h-3.557V37.903V14.898h3.557V11.341z M318.191,42.897h-6.732v-0.651h-0.65v-8.686h0.65v-0.651
				h6.732v2.176h-5.209v1.73h3.256v2.176h-3.256v1.73h5.209V42.897L318.191,42.897z"/>
		</g>
		<path fill="#3906CF" stroke="#FF1D25" stroke-width="0.7778" d="M348.721,22.011v10.447h17.561V22.011H348.721z M360.752,42.897
			h-2.176v-3.906h-3.033v3.906h-2.174v-9.988h6.732v0.651h0.65v4.128h-0.65v0.429h0.65V42.897L360.752,42.897z M358.799,42.675h1.73
			V38.34h-0.65v-0.873h0.65v-3.684h-0.65v-0.651h-6.289v9.543h1.732v-3.906h3.477V42.675L358.799,42.675z M358.799,28.515h-3.477
			V26.34h3.477V28.515L358.799,28.515z M341.621,59.693v-43.58h29.055v2.905h2.904v17.432h-2.904v2.905h2.904v20.337h-8.715V42.261
			h-14.527v17.432H341.621z"/>
	</g>
	<g>
		<g>
			<path fill="#1C03E7" stroke="#FF1D25" stroke-width="0.8889" d="M11.356,6.171h27.081l2.811,0.326h3.136v3.633l3.32,0.315v2.751
				l-0.698,7.447h-1.994l-3.497-0.326h-5.067l-0.31-3.32h-11.7l-5.9,0.551v29.175l0.303,3.198h16.844l1.193-0.117v-10.89
				l-0.436-0.042h-6.786l-0.069-0.781V28.046h14.03l0.442,0.04v3.388l0.021,0.218h3.624v20.019l-0.325,2.696v3.021h-3.581
				l-0.254,3.32H11.356l0,0v-3.646H7.71V9.817h3.646V6.171z M29.731,35.957H26.69v-0.326h-0.325v-4.343h0.325v-0.326h3.041v0.326
				h0.325v1.087H28.97v-0.325h-1.517v2.818h1.517v-0.865h-0.651v-1.088h1.413v0.326h0.325v2.39h-0.325V35.957L29.731,35.957z"/>
		</g>
		<path fill="#1C03E7" stroke="#FF1D25" stroke-width="0.8889" d="M62.399,17.109v10.826h18.118V17.109H62.399z M73.675,35.957
			h-1.087v-1.953h-1.517v1.953h-1.088v-4.668h0.325v-0.326h3.041v0.326h0.325V35.957L73.675,35.957z M72.698,35.846h0.866v-4.446
			h-0.326v-0.325H70.42v0.325h-0.325v4.446h0.865v-1.953h1.738V35.846L72.698,35.846z M72.698,23.287h-1.739V22.2h1.739V23.287
			L72.698,23.287z M53.159,58.363V11.877h3.32V8.557h29.884v3.321h3.32v46.485h-9.961V38.44H63.121v19.922H53.159z"/>
		<g>
			<path fill="#1C03E7" stroke="#FF1D25" stroke-width="0.8889" d="M95.212,6.171h9.685l1.143,0.118v2.33l0.117,1.199h2.33
				l1.198,0.113v6.021l0.118,1.157h2.329l1.199,0.113v6.021l0.117,1.157h2.329l1.199,0.114v6.022l0.11,1.157h3.646V24.4h3.646
				v-7.292h3.646V9.845l0.307-0.028h3.3l0.04-0.407V6.222l0.535-0.051h10.291v54.578h-9.978l0,0l-0.849-0.075V31.582h-3.665
				l-0.093,0.908v2.663l-0.77,0.076h-2.813l-0.063,0.613v6.651l-0.307,0.028h-3.325l-0.015,0.142v3.504h-2.41l-1.124-0.11v-2.412
				l-0.11-1.124h-2.412l-1.124-0.113v-6.022l-0.117-1.156h-2.329l-1.199-0.118v-2.33l-0.119-1.199h-3.638v29.086l-0.85,0.081h-9.978
				V6.171z M121.254,35.957h-1.088v-2.604h-0.215v0.325h-0.325v0.651H119.3v0.326h-0.437v-0.326h-0.325v-0.651h-0.325v-0.325h-0.215
				v2.604h-1.088v-4.994h1.088v0.326h0.325v0.651h0.326v0.651h0.325v0.651h0.215v-0.651h0.325v-0.651h0.325v-0.651h0.326v-0.326
				h1.088V35.957L121.254,35.957z"/>
		</g>
		<g>
			<path fill="#1C03E7" stroke="#FF1D25" stroke-width="0.8889" d="M149.9,6.171h18.174h18.175v8.616l-0.251,2.211h-10.42h-4.354
				h-8.588l-5.556,0.62v4.634l0.644,5.794h9.82l7.767,0.866l-0.843,9.961h-10.058l-7.33,0.62v6.031l0.37,4.398h11.9h2.506h14.392
				v10.827h-18.175H149.9l0,0v-3.646h-3.646V33.46V9.817h3.646V6.171z M168.181,35.957h-3.366v-0.326h-0.325v-4.343h0.325v-0.326
				h3.366v1.088h-2.604v0.865h1.627v1.088h-1.627v0.865h2.604V35.957L168.181,35.957z"/>
		</g>
		<path fill="#1C03E7" stroke="#FF1D25" stroke-width="0.8889" d="M219.174,17.109v32.702h18.119V17.109H219.174z M229.648,35.957
			h-3.041v-0.326h-0.325v-4.343h0.325v-0.326h3.041v0.326h0.325v4.343h-0.325V35.957L229.648,35.957z M226.719,35.846h2.818v-0.325
			h0.326v-4.121h-0.326v-0.325h-2.818v0.325h-0.325v4.121h0.325V35.846L226.719,35.846z M228.997,34.979h-1.738v-3.041h1.738V34.979
			L228.997,34.979z M213.302,58.363v-3.32h-3.32V11.877h3.32V8.557h29.884v3.321h3.32v43.165h-3.32v3.32H213.302z"/>
		<g>
			<path fill="#1C03E7" stroke="#FF1D25" stroke-width="0.8889" d="M251.987,6.171h10.826v32.813h3.646v7.292h3.646v3.646h3.647
				l0.11-1.124v-2.412l1.124-0.11h2.411l0.11-1.157v-6.021l1.199-0.113h2.329l0.117-1.209V6.282l1.144-0.111h9.684v32.702h-3.646
				v7.292h-3.646v3.646h-3.646v7.292h-3.646v3.646h-10.347l0,0l-0.48-0.04v-3.388l-0.021-0.218h-3.624v-7.292h-3.646v-3.646h-3.646
				v-7.292h-3.646V6.171z M272.29,35.957h-1.088v-0.326h-0.325V34.98h-0.325v-0.326h-0.326v-0.651H269.9v-3.041h1.088v2.93h0.325
				v0.651h0.325v0.325h0.215v-0.325h0.325v-0.651h0.326v-2.93h1.087v3.041h-0.325v0.651h-0.325v0.326h-0.326v0.651h-0.325V35.957
				L272.29,35.957z"/>
		</g>
		<g>
			<path fill="#1C03E7" stroke="#FF1D25" stroke-width="0.8889" d="M299.384,6.171h18.174h18.174v8.616l-0.251,2.211h-10.419h-4.354
				h-8.588l-5.556,0.62v4.634l0.644,5.794h9.82l7.766,0.866l-0.842,9.961h-10.057l-7.331,0.62v6.031l0.369,4.398h11.9h2.507h14.391
				v10.827h-18.174h-18.174l0,0v-3.646h-3.646V33.46V9.817h3.646V6.171z M317.209,35.957h-3.366v-0.326h-0.325v-4.343h0.325v-0.326
				h3.366v1.088h-2.604v0.865h1.627v1.088h-1.627v0.865h2.604V35.957L317.209,35.957z"/>
		</g>
		<path fill="#1C03E7" stroke="#FF1D25" stroke-width="0.8889" d="M350.427,17.109v10.826h18.119V17.109H350.427z M360.827,35.957
			h-1.087v-1.953h-1.517v1.953h-1.088v-4.994h3.366v0.326h0.325v2.064h-0.325v0.214h0.325V35.957L360.827,35.957z M359.851,35.846
			h0.866v-2.167h-0.326v-0.437h0.326v-1.842h-0.326v-0.325h-3.144v4.771h0.865v-1.953h1.738V35.846L359.851,35.846z M359.851,23.287
			h-1.738V22.2h1.738V23.287L359.851,23.287z M341.273,58.363V8.557h33.204v3.321h3.32V31.8h-3.32v3.32h3.32v23.243h-9.961V38.44
			h-16.603v19.922H341.273z"/>
	</g>
	<g>
		<path fill="#0000FF" stroke="#FF1D25" d="M4.735,57.032v-3.735H1V4.736h3.735V1h33.619v3.736h3.735v11.206H30.883v-3.735H12.207
			v33.619h18.677V34.619h-7.471V23.413h14.942v3.736h3.735v26.148h-3.735v3.735H4.735z"/>
		<path fill="#0000FF" stroke="#FF1D25" d="M75.708,23.413V12.207H57.032v11.206H75.708z M45.825,57.032V4.736h3.735V1H83.18v3.736
			h3.735v52.296H75.708V34.619H57.032v22.413H45.825z"/>
		<path fill="#0000FF" stroke="#FF1D25" d="M90.65,57.032V1h11.207v3.736h3.735v7.471h3.735v7.471h3.735v7.471h3.735v-7.471h3.735
			v-7.471h3.736V4.736h3.735V1h11.206v56.032h-11.206V27.148h-3.735v3.735h-3.736v7.471h-3.735v3.735h-3.735v-3.735h-3.735v-7.471
			h-3.735v-3.735h-3.735v29.883H90.65z"/>
		<path fill="#0000FF" stroke="#FF1D25" d="M146.682,57.032v-3.735h-3.735v-24.28V4.736h3.735V1h18.677h18.677v11.207h-14.942
			h-14.942v11.206h18.678v11.207h-18.678v11.206h14.942h14.942v11.207h-18.677H146.682z"/>
		<path fill="#0000FF" stroke="#FF1D25" d="M236.333,45.825V12.207h-18.678v33.619H236.333z M210.185,57.032v-3.735h-3.735V4.736
			h3.735V1h33.619v3.736h3.735v48.561h-3.735v3.735H210.185z"/>
		<path fill="#0000FF" stroke="#FF1D25" d="M266.216,57.032v-3.735h-3.735v-7.471h-3.735V42.09h-3.735v-7.471h-3.735V1h11.206
			v33.619h3.735v7.471h3.735v3.735h3.736V42.09h3.735v-7.471h3.735V1h11.206v33.619h-3.735v7.471h-3.735v3.735h-3.735v7.471h-3.735
			v3.735H266.216z"/>
		<path fill="#0000FF" stroke="#FF1D25" d="M299.835,57.032v-3.735H296.1v-24.28V4.736h3.735V1h18.677h18.678v11.207h-14.941
			h-14.942v11.206h18.678v11.207h-18.678v11.206h14.942h14.941v11.207h-18.678H299.835z"/>
		<path fill="#0000FF" stroke="#FF1D25" d="M370.809,23.413V12.207h-18.678v11.206H370.809z M340.925,57.032V1h37.354v3.736h3.735
			v22.413h-3.735v3.735h3.735v26.148h-11.206V34.619h-18.678v22.413H340.925z"/>
	</g>
</g>
</svg>
