<?xml version="1.0" encoding="utf-8"?>
<!-- Generator: Adobe Illustrator 14.0.0, SVG Export Plug-In . SVG Version: 6.00 Build 43363)  -->
<!DOCTYPE svg PUBLIC "-//W3C//DTD SVG 1.1//EN" "http://www.w3.org/Graphics/SVG/1.1/DTD/svg11.dtd">
<svg version="1.1" id="Layer_2" xmlns="http://www.w3.org/2000/svg" xmlns:xlink="http://www.w3.org/1999/xlink" x="0px" y="0px"
	 width="336px" height="315.879px" viewBox="0 0 336 315.879" enable-background="new 0 0 336 315.879" xml:space="preserve">
<g>
	<g>
		<path fill="#006837" stroke="#0000FF" d="M57.629,39.414v-9.028h-15.05v9.028H57.629z M33.55,66.502V21.355h30.098v3.009h3.01
			v21.07h-3.01v3.009H42.579v18.059H33.55z"/>
		<path fill="#006837" stroke="#0000FF" d="M93.747,39.414v-9.028H78.698v9.028H93.747z M69.667,66.502V24.364h3.01v-3.009h27.088
			v3.009h3.01v42.138h-9.029V48.443H78.698v18.059H69.667z"/>
		<path fill="#006837" stroke="#0000FF" d="M105.786,66.502V21.355h9.029v3.009h3.01v6.021h3.01v6.019h3.01v6.019h3.009v3.011h3.01
			V21.355h9.03v45.147h-9.03v-3.01h-3.01v-6.019h-3.009v-6.021h-3.01v-6.019h-3.01v-3.011h-3.01v24.079H105.786z"/>
		<path fill="#006837" stroke="#0000FF" d="M165.982,57.474V30.385h-15.049v27.088H165.982z M141.904,66.502V21.355h30.098v3.009
			h3.011v39.128h-3.011v3.01H141.904z"/>
		<path fill="#006837" stroke="#0000FF" d="M181.031,66.502v-3.01h-3.009V24.364h3.009v-3.009h30.099v9.03h-24.079v9.028h15.05v9.03
			h-15.05v9.03h24.079v9.028H181.031z"/>
		<path fill="#006837" stroke="#0000FF" d="M214.141,66.502V21.355h9.028v3.009h3.01v6.021h3.011v6.019h3.01v6.019h3.009v-6.019
			h3.01v-6.019h3.011v-6.021h3.01v-3.009h9.028v45.147h-9.028V42.423h-3.01v3.011h-3.011v6.019h-3.01v3.009h-3.009v-3.009h-3.01
			v-6.019h-3.011v-3.011h-3.01v24.079H214.141z"/>
		<path fill="#006837" stroke="#0000FF" d="M256.278,66.502V21.355h9.028v45.147H256.278z"/>
		<path fill="#006837" stroke="#0000FF" d="M271.327,66.502v-3.01h-3.01V24.364h3.01v-3.009h27.088v3.009h3.01v9.03h-9.03v-3.009
			h-15.049v27.088h15.049v-3.011h9.03v9.03h-3.01v3.01H271.327z"/>
		<path fill="#006837" stroke="#0000FF" d="M144.914,124.291V79.143h9.029v45.148H144.914z"/>
		<path fill="#006837" stroke="#0000FF" d="M159.963,124.291v-3.01h-3.01v-9.029h9.029v3.01h15.049v-9.029h-21.068v-3.01h-3.01
			V82.154h3.01v-3.011h27.088v3.011h3.011v9.028h-9.03v-3.009h-15.049v9.03h21.068v3.01h3.011v21.068h-3.011v3.01H159.963z"/>
		<path fill="#006837" stroke="#0000FF" d="M120.835,173.049v-27.088h-15.049v27.088H120.835z M99.766,182.08v-3.01h-3.01v-39.129
			h3.01v-3.01h27.088v3.01h3.01v39.129h-3.01v3.01H99.766z"/>
		<path fill="#006837" stroke="#0000FF" d="M144.914,182.08v-3.01h-3.01v-6.021h-3.01v-3.01h-3.01v-6.018h-3.009v-27.09h9.029v27.09
			h3.01v6.018h3.009v3.01h3.01v-3.01h3.009v-6.018h3.01v-27.09h9.029v27.09h-3.01v6.018h-3.01v3.01h-3.01v6.021h-3.01v3.01H144.914z
			"/>
		<path fill="#006837" stroke="#0000FF" d="M172.002,182.08v-3.01h-3.01v-39.129h3.01v-3.01h30.099v9.029h-24.078v9.029h15.049
			v9.031h-15.049v9.027h24.078v9.031H172.002z"/>
		<path fill="#006837" stroke="#0000FF" d="M229.189,154.99v-9.029h-15.049v9.029H229.189z M205.11,182.08v-45.148h30.098v3.01h3.01
			V158h-3.01v3.012h3.01v21.068h-9.028v-18.059h-15.049v18.059H205.11z"/>
	</g>
	<g>
		<path fill="#1B7533" stroke="#0000FF" d="M54.878,37.854v-9.255H39.451v9.255H54.878z M30.196,65.62V19.342h30.852v3.085h3.086
			v21.597h-3.086v3.085H39.451V65.62H30.196z"/>
		<path fill="#1B7533" stroke="#0000FF" d="M91.9,37.854v-9.255H76.474v9.255H91.9z M67.218,65.62V22.427h3.085v-3.085H98.07v3.085
			h3.085V65.62H91.9V47.109H76.474V65.62H67.218z"/>
		<polygon fill="#1B7533" stroke="#0000FF" points="104.241,65.62 104.241,19.342 113.497,19.342 113.497,22.427 116.582,22.427 
			116.582,28.599 119.667,28.599 119.667,34.768 122.752,34.768 122.752,40.938 125.837,40.938 125.837,44.024 128.922,44.024 
			128.922,19.342 138.178,19.342 138.178,65.62 128.922,65.62 128.922,62.535 125.837,62.535 125.837,56.366 122.752,56.366 
			122.752,50.194 119.667,50.194 119.667,44.024 116.582,44.024 116.582,40.938 113.497,40.938 113.497,65.62 		"/>
		<path fill="#1B7533" stroke="#0000FF" d="M165.945,56.366V28.599h-15.426v27.767H165.945z M141.263,65.62V19.342h30.852v3.085
			h3.086v40.108h-3.086v3.085H141.263z"/>
		<polygon fill="#1B7533" stroke="#0000FF" points="181.37,65.62 181.37,62.535 178.286,62.535 178.286,22.427 181.37,22.427 
			181.37,19.342 212.223,19.342 212.223,28.599 187.541,28.599 187.541,37.854 202.968,37.854 202.968,47.109 187.541,47.109 
			187.541,56.366 212.223,56.366 212.223,65.62 		"/>
		<polygon fill="#1B7533" stroke="#0000FF" points="215.309,65.62 215.309,19.342 224.563,19.342 224.563,22.427 227.648,22.427 
			227.648,28.599 230.734,28.599 230.734,34.768 233.819,34.768 233.819,40.938 236.904,40.938 236.904,34.768 239.989,34.768 
			239.989,28.599 243.075,28.599 243.075,22.427 246.16,22.427 246.16,19.342 255.415,19.342 255.415,65.62 246.16,65.62 
			246.16,40.938 243.075,40.938 243.075,44.024 239.989,44.024 239.989,50.194 236.904,50.194 236.904,53.279 233.819,53.279 
			233.819,50.194 230.734,50.194 230.734,44.024 227.648,44.024 227.648,40.938 224.563,40.938 224.563,65.62 		"/>
		<rect x="258.502" y="19.342" fill="#1B7533" stroke="#0000FF" width="9.254" height="46.278"/>
		<polygon fill="#1B7533" stroke="#0000FF" points="273.928,65.62 273.928,62.535 270.843,62.535 270.843,22.427 273.928,22.427 
			273.928,19.342 301.693,19.342 301.693,22.427 304.779,22.427 304.779,31.684 295.522,31.684 295.522,28.599 280.097,28.599 
			280.097,56.366 295.522,56.366 295.522,53.279 304.779,53.279 304.779,62.535 301.693,62.535 301.693,65.62 		"/>
		<rect x="144.349" y="78.578" fill="#1B7533" stroke="#0000FF" width="9.255" height="46.279"/>
		<polygon fill="#1B7533" stroke="#0000FF" points="159.774,124.856 159.774,121.771 156.689,121.771 156.689,112.516 
			165.945,112.516 165.945,115.601 181.37,115.601 181.37,106.346 159.774,106.346 159.774,103.261 156.689,103.261 156.689,81.664 
			159.774,81.664 159.774,78.578 187.541,78.578 187.541,81.664 190.627,81.664 190.627,90.918 181.37,90.918 181.37,87.834 
			165.945,87.834 165.945,97.09 187.541,97.09 187.541,100.176 190.627,100.176 190.627,121.771 187.541,121.771 187.541,124.856 		
			"/>
		<path fill="#1B7533" stroke="#0000FF" d="M119.667,174.835v-27.766h-15.426v27.766H119.667z M98.07,184.093v-3.085h-3.086v-40.109
			h3.086v-3.085h27.767v3.085h3.085v40.109h-3.085v3.085H98.07z"/>
		<polygon fill="#1B7533" stroke="#0000FF" points="144.349,184.093 144.349,181.008 141.263,181.008 141.263,174.835 
			138.178,174.835 138.178,171.75 135.092,171.75 135.092,165.582 132.008,165.582 132.008,137.813 141.263,137.813 
			141.263,165.582 144.349,165.582 144.349,171.75 147.434,171.75 147.434,174.835 150.519,174.835 150.519,171.75 153.604,171.75 
			153.604,165.582 156.689,165.582 156.689,137.813 165.945,137.813 165.945,165.582 162.859,165.582 162.859,171.75 
			159.774,171.75 159.774,174.835 156.689,174.835 156.689,181.008 153.604,181.008 153.604,184.093 		"/>
		<polygon fill="#1B7533" stroke="#0000FF" points="172.115,184.093 172.115,181.008 169.03,181.008 169.03,140.898 
			172.115,140.898 172.115,137.813 202.968,137.813 202.968,147.069 178.286,147.069 178.286,156.324 193.712,156.324 
			193.712,165.582 178.286,165.582 178.286,174.835 202.968,174.835 202.968,184.093 		"/>
		<path fill="#1B7533" stroke="#0000FF" d="M230.734,156.324v-9.255h-15.426v9.255H230.734z M206.053,184.093v-46.279h30.852v3.085
			h3.085v18.512h-3.085v3.086h3.085v21.597h-9.255v-18.511h-15.426v18.511H206.053z"/>
	</g>
	<g>
		<path fill="#36822F" stroke="#0000FF" d="M52.126,36.293v-9.481H36.323v9.481H52.126z M26.841,64.738V17.33h31.606v3.16h3.161
			v22.125h-3.161v3.16H36.323v18.963H26.841z"/>
		<path fill="#36822F" stroke="#0000FF" d="M90.053,36.293v-9.481H74.25v9.481H90.053z M64.768,64.738V20.49h3.161v-3.16h28.445
			v3.16h3.16v44.248h-9.481V45.775H74.25v18.963H64.768z"/>
		<polygon fill="#36822F" stroke="#0000FF" points="102.696,64.738 102.696,17.33 112.177,17.33 112.177,20.49 115.338,20.49 
			115.338,26.812 118.499,26.812 118.499,33.132 121.659,33.132 121.659,39.453 124.819,39.453 124.819,42.615 127.98,42.615 
			127.98,17.33 137.462,17.33 137.462,64.738 127.98,64.738 127.98,61.578 124.819,61.578 124.819,55.257 121.659,55.257 
			121.659,48.936 118.499,48.936 118.499,42.615 115.338,42.615 115.338,39.453 112.177,39.453 112.177,64.738 		"/>
		<path fill="#36822F" stroke="#0000FF" d="M165.907,55.257V26.812h-15.802v28.445H165.907z M140.623,64.738V17.33h31.606v3.16
			h3.161v41.087h-3.161v3.161H140.623z"/>
		<polygon fill="#36822F" stroke="#0000FF" points="181.71,64.738 181.71,61.578 178.55,61.578 178.55,20.49 181.71,20.49 
			181.71,17.33 213.315,17.33 213.315,26.812 188.031,26.812 188.031,36.293 203.834,36.293 203.834,45.775 188.031,45.775 
			188.031,55.257 213.315,55.257 213.315,64.738 		"/>
		<polygon fill="#36822F" stroke="#0000FF" points="216.477,64.738 216.477,17.33 225.958,17.33 225.958,20.49 229.118,20.49 
			229.118,26.812 232.279,26.812 232.279,33.132 235.44,33.132 235.44,39.453 238.6,39.453 238.6,33.132 241.761,33.132 
			241.761,26.812 244.922,26.812 244.922,20.49 248.082,20.49 248.082,17.33 257.563,17.33 257.563,64.738 248.082,64.738 
			248.082,39.453 244.922,39.453 244.922,42.615 241.761,42.615 241.761,48.936 238.6,48.936 238.6,52.096 235.44,52.096 
			235.44,48.936 232.279,48.936 232.279,42.615 229.118,42.615 229.118,39.453 225.958,39.453 225.958,64.738 		"/>
		<rect x="260.726" y="17.33" fill="#36822F" stroke="#0000FF" width="9.48" height="47.408"/>
		<polygon fill="#36822F" stroke="#0000FF" points="276.528,64.738 276.528,61.578 273.367,61.578 273.367,20.49 276.528,20.49 
			276.528,17.33 304.973,17.33 304.973,20.49 308.133,20.49 308.133,29.973 298.65,29.973 298.65,26.812 282.848,26.812 
			282.848,55.257 298.65,55.257 298.65,52.096 308.133,52.096 308.133,61.578 304.973,61.578 304.973,64.738 		"/>
		<rect x="143.783" y="78.013" fill="#36822F" stroke="#0000FF" width="9.481" height="47.409"/>
		<polygon fill="#36822F" stroke="#0000FF" points="159.586,125.422 159.586,122.262 156.425,122.262 156.425,112.779 
			165.907,112.779 165.907,115.94 181.71,115.94 181.71,106.459 159.586,106.459 159.586,103.298 156.425,103.298 156.425,81.174 
			159.586,81.174 159.586,78.013 188.031,78.013 188.031,81.174 191.192,81.174 191.192,90.655 181.71,90.655 181.71,87.495 
			165.907,87.495 165.907,96.977 188.031,96.977 188.031,100.138 191.192,100.138 191.192,122.262 188.031,122.262 188.031,125.422 
					"/>
		<path fill="#36822F" stroke="#0000FF" d="M118.499,176.622v-28.445h-15.803v28.445H118.499z M96.375,186.104v-3.16h-3.161v-41.088
			h3.161v-3.161h28.445v3.161h3.161v41.088h-3.161v3.16H96.375z"/>
		<polygon fill="#36822F" stroke="#0000FF" points="143.783,186.104 143.783,182.944 140.623,182.944 140.623,176.622 
			137.462,176.622 137.462,173.461 134.301,173.461 134.301,167.142 131.141,167.142 131.141,138.695 140.623,138.695 
			140.623,167.142 143.783,167.142 143.783,173.461 146.943,173.461 146.943,176.622 150.104,176.622 150.104,173.461 
			153.265,173.461 153.265,167.142 156.425,167.142 156.425,138.695 165.907,138.695 165.907,167.142 162.747,167.142 
			162.747,173.461 159.586,173.461 159.586,176.622 156.425,176.622 156.425,182.944 153.265,182.944 153.265,186.104 		"/>
		<polygon fill="#36822F" stroke="#0000FF" points="172.229,186.104 172.229,182.944 169.067,182.944 169.067,141.856 
			172.229,141.856 172.229,138.695 203.834,138.695 203.834,148.177 178.55,148.177 178.55,157.658 194.353,157.658 
			194.353,167.142 178.55,167.142 178.55,176.622 203.834,176.622 203.834,186.104 		"/>
		<path fill="#36822F" stroke="#0000FF" d="M232.279,157.658v-9.481h-15.803v9.481H232.279z M206.995,186.104v-47.409H238.6v3.161
			h3.161v18.963H238.6v3.162h3.161v22.123h-9.481v-18.963h-15.803v18.963H206.995z"/>
	</g>
	<g>
		<path fill="#528E2B" stroke="#0000FF" d="M49.375,34.733v-9.707H33.195v9.707H49.375z M23.487,63.856V15.317h32.359v3.236h3.236
			v22.652h-3.236v3.235H33.195v19.416H23.487z"/>
		<path fill="#528E2B" stroke="#0000FF" d="M88.207,34.733v-9.707h-16.18v9.707H88.207z M62.318,63.856V18.553h3.236v-3.236h29.124
			v3.236h3.236v45.303h-9.708V44.441h-16.18v19.416H62.318z"/>
		<polygon fill="#528E2B" stroke="#0000FF" points="101.15,63.856 101.15,15.317 110.858,15.317 110.858,18.553 114.094,18.553 
			114.094,25.026 117.33,25.026 117.33,31.497 120.566,31.497 120.566,37.968 123.802,37.968 123.802,41.206 127.038,41.206 
			127.038,15.317 136.746,15.317 136.746,63.856 127.038,63.856 127.038,60.621 123.802,60.621 123.802,54.149 120.566,54.149 
			120.566,47.677 117.33,47.677 117.33,41.206 114.094,41.206 114.094,37.968 110.858,37.968 110.858,63.856 		"/>
		<path fill="#528E2B" stroke="#0000FF" d="M165.869,54.149V25.026H149.69v29.124H165.869z M139.982,63.856V15.317h32.359v3.236
			h3.237v42.067h-3.237v3.236H139.982z"/>
		<polygon fill="#528E2B" stroke="#0000FF" points="182.049,63.856 182.049,60.621 178.813,60.621 178.813,18.553 182.049,18.553 
			182.049,15.317 214.408,15.317 214.408,25.026 188.521,25.026 188.521,34.733 204.701,34.733 204.701,44.441 188.521,44.441 
			188.521,54.149 214.408,54.149 214.408,63.856 		"/>
		<polygon fill="#528E2B" stroke="#0000FF" points="217.646,63.856 217.646,15.317 227.353,15.317 227.353,18.553 230.588,18.553 
			230.588,25.026 233.825,25.026 233.825,31.497 237.061,31.497 237.061,37.968 240.296,37.968 240.296,31.497 243.532,31.497 
			243.532,25.026 246.769,25.026 246.769,18.553 250.004,18.553 250.004,15.317 259.711,15.317 259.711,63.856 250.004,63.856 
			250.004,37.968 246.769,37.968 246.769,41.206 243.532,41.206 243.532,47.677 240.296,47.677 240.296,50.913 237.061,50.913 
			237.061,47.677 233.825,47.677 233.825,41.206 230.588,41.206 230.588,37.968 227.353,37.968 227.353,63.856 		"/>
		<rect x="262.948" y="15.317" fill="#528E2B" stroke="#0000FF" width="9.707" height="48.539"/>
		<polygon fill="#528E2B" stroke="#0000FF" points="279.128,63.856 279.128,60.621 275.893,60.621 275.893,18.553 279.128,18.553 
			279.128,15.317 308.251,15.317 308.251,18.553 311.487,18.553 311.487,28.261 301.779,28.261 301.779,25.026 285.6,25.026 
			285.6,54.149 301.779,54.149 301.779,50.913 311.487,50.913 311.487,60.621 308.251,60.621 308.251,63.856 		"/>
		<rect x="143.218" y="77.447" fill="#528E2B" stroke="#0000FF" width="9.708" height="48.54"/>
		<polygon fill="#528E2B" stroke="#0000FF" points="159.397,125.987 159.397,122.751 156.162,122.751 156.162,113.044 
			165.869,113.044 165.869,116.279 182.049,116.279 182.049,106.571 159.397,106.571 159.397,103.336 156.162,103.336 
			156.162,80.684 159.397,80.684 159.397,77.447 188.521,77.447 188.521,80.684 191.757,80.684 191.757,90.391 182.049,90.391 
			182.049,87.156 165.869,87.156 165.869,96.864 188.521,96.864 188.521,100.1 191.757,100.1 191.757,122.751 188.521,122.751 
			188.521,125.987 		"/>
		<path fill="#528E2B" stroke="#0000FF" d="M117.33,178.408v-29.123h-16.18v29.123H117.33z M94.678,188.117v-3.235h-3.236v-42.068
			h3.236v-3.236h29.124v3.236h3.236v42.068h-3.236v3.235H94.678z"/>
		<polygon fill="#528E2B" stroke="#0000FF" points="143.218,188.117 143.218,184.882 139.982,184.882 139.982,178.408 
			136.746,178.408 136.746,175.173 133.51,175.173 133.51,168.702 130.274,168.702 130.274,139.577 139.982,139.577 
			139.982,168.702 143.218,168.702 143.218,175.173 146.454,175.173 146.454,178.408 149.69,178.408 149.69,175.173 
			152.925,175.173 152.925,168.702 156.162,168.702 156.162,139.577 165.869,139.577 165.869,168.702 162.633,168.702 
			162.633,175.173 159.397,175.173 159.397,178.408 156.162,178.408 156.162,184.882 152.925,184.882 152.925,188.117 		"/>
		<polygon fill="#528E2B" stroke="#0000FF" points="172.341,188.117 172.341,184.882 169.105,184.882 169.105,142.813 
			172.341,142.813 172.341,139.577 204.701,139.577 204.701,149.285 178.813,149.285 178.813,158.993 194.993,158.993 
			194.993,168.702 178.813,168.702 178.813,178.408 204.701,178.408 204.701,188.117 		"/>
		<path fill="#528E2B" stroke="#0000FF" d="M233.825,158.993v-9.708h-16.18v9.708H233.825z M207.937,188.117v-48.54h32.359v3.236
			h3.236v19.416h-3.236v3.236h3.236v22.651h-9.707v-19.415h-16.18v19.415H207.937z"/>
	</g>
	<g>
		<path fill="#6D9B27" stroke="#0000FF" d="M46.624,33.173v-9.934H30.067v9.934H46.624z M20.133,62.975v-49.67h33.113v3.312h3.312
			v23.18h-3.312v3.311H30.067v19.868H20.133z"/>
		<path fill="#6D9B27" stroke="#0000FF" d="M86.36,33.173v-9.934H69.803v9.934H86.36z M59.869,62.975V16.616h3.312v-3.312h29.802
			v3.312h3.311v46.358H86.36V43.107H69.803v19.868H59.869z"/>
		<polygon fill="#6D9B27" stroke="#0000FF" points="99.605,62.975 99.605,13.305 109.539,13.305 109.539,16.616 112.851,16.616 
			112.851,23.239 116.162,23.239 116.162,29.861 119.473,29.861 119.473,36.483 122.784,36.483 122.784,39.796 126.096,39.796 
			126.096,13.305 136.03,13.305 136.03,62.975 126.096,62.975 126.096,59.663 122.784,59.663 122.784,53.041 119.473,53.041 
			119.473,46.418 116.162,46.418 116.162,39.796 112.851,39.796 112.851,36.483 109.539,36.483 109.539,62.975 		"/>
		<path fill="#6D9B27" stroke="#0000FF" d="M165.832,53.041V23.239h-16.556v29.802H165.832z M139.341,62.975v-49.67h33.113v3.312
			h3.313v43.047h-3.313v3.312H139.341z"/>
		<polygon fill="#6D9B27" stroke="#0000FF" points="182.388,62.975 182.388,59.663 179.077,59.663 179.077,16.616 182.388,16.616 
			182.388,13.305 215.501,13.305 215.501,23.239 189.011,23.239 189.011,33.173 205.567,33.173 205.567,43.107 189.011,43.107 
			189.011,53.041 215.501,53.041 215.501,62.975 		"/>
		<polygon fill="#6D9B27" stroke="#0000FF" points="218.813,62.975 218.813,13.305 228.747,13.305 228.747,16.616 232.058,16.616 
			232.058,23.239 235.37,23.239 235.37,29.861 238.681,29.861 238.681,36.483 241.992,36.483 241.992,29.861 245.304,29.861 
			245.304,23.239 248.615,23.239 248.615,16.616 251.926,16.616 251.926,13.305 261.859,13.305 261.859,62.975 251.926,62.975 
			251.926,36.483 248.615,36.483 248.615,39.796 245.304,39.796 245.304,46.418 241.992,46.418 241.992,49.729 238.681,49.729 
			238.681,46.418 235.37,46.418 235.37,39.796 232.058,39.796 232.058,36.483 228.747,36.483 228.747,62.975 		"/>
		<rect x="265.172" y="13.305" fill="#6D9B27" stroke="#0000FF" width="9.934" height="49.67"/>
		<polygon fill="#6D9B27" stroke="#0000FF" points="281.729,62.975 281.729,59.663 278.417,59.663 278.417,16.616 281.729,16.616 
			281.729,13.305 311.53,13.305 311.53,16.616 314.842,16.616 314.842,26.55 304.907,26.55 304.907,23.239 288.351,23.239 
			288.351,53.041 304.907,53.041 304.907,49.729 314.842,49.729 314.842,59.663 311.53,59.663 311.53,62.975 		"/>
		<rect x="142.652" y="76.882" fill="#6D9B27" stroke="#0000FF" width="9.934" height="49.67"/>
		<polygon fill="#6D9B27" stroke="#0000FF" points="159.209,126.553 159.209,123.241 155.898,123.241 155.898,113.308 
			165.832,113.308 165.832,116.618 182.388,116.618 182.388,106.685 159.209,106.685 159.209,103.373 155.898,103.373 
			155.898,80.194 159.209,80.194 159.209,76.882 189.011,76.882 189.011,80.194 192.322,80.194 192.322,90.127 182.388,90.127 
			182.388,86.816 165.832,86.816 165.832,96.751 189.011,96.751 189.011,100.063 192.322,100.063 192.322,123.241 189.011,123.241 
			189.011,126.553 		"/>
		<path fill="#6D9B27" stroke="#0000FF" d="M116.162,180.194v-29.801H99.605v29.801H116.162z M92.982,190.13v-3.312h-3.312v-43.047
			h3.312v-3.313h29.802v3.313h3.312v43.047h-3.312v3.312H92.982z"/>
		<polygon fill="#6D9B27" stroke="#0000FF" points="142.652,190.13 142.652,186.818 139.341,186.818 139.341,180.194 
			136.03,180.194 136.03,176.884 132.718,176.884 132.718,170.262 129.407,170.262 129.407,140.459 139.341,140.459 
			139.341,170.262 142.652,170.262 142.652,176.884 145.964,176.884 145.964,180.194 149.275,180.194 149.275,176.884 
			152.586,176.884 152.586,170.262 155.898,170.262 155.898,140.459 165.832,140.459 165.832,170.262 162.521,170.262 
			162.521,176.884 159.209,176.884 159.209,180.194 155.898,180.194 155.898,186.818 152.586,186.818 152.586,190.13 		"/>
		<polygon fill="#6D9B27" stroke="#0000FF" points="172.454,190.13 172.454,186.818 169.144,186.818 169.144,143.771 
			172.454,143.771 172.454,140.459 205.567,140.459 205.567,150.394 179.077,150.394 179.077,160.327 195.634,160.327 
			195.634,170.262 179.077,170.262 179.077,180.194 205.567,180.194 205.567,190.13 		"/>
		<path fill="#6D9B27" stroke="#0000FF" d="M235.37,160.327v-9.934h-16.557v9.934H235.37z M208.879,190.13v-49.671h33.113v3.313
			h3.312v19.867h-3.312v3.313h3.312v23.179h-9.934v-19.868h-16.557v19.868H208.879z"/>
	</g>
	<g>
		<path fill="#88A822" stroke="#0000FF" d="M43.873,31.612v-10.16H26.939v10.16H43.873z M16.779,62.093v-50.8h33.867v3.386h3.387
			v23.708h-3.387v3.386H26.939v20.32H16.779z"/>
		<path fill="#88A822" stroke="#0000FF" d="M84.513,31.612v-10.16H67.58v10.16H84.513z M57.419,62.093V14.679h3.387v-3.386h30.48
			v3.386h3.387v47.414h-10.16v-20.32H67.58v20.32H57.419z"/>
		<polygon fill="#88A822" stroke="#0000FF" points="98.06,62.093 98.06,11.292 108.22,11.292 108.22,14.679 111.606,14.679 
			111.606,21.453 114.994,21.453 114.994,28.226 118.38,28.226 118.38,34.999 121.767,34.999 121.767,38.386 125.153,38.386 
			125.153,11.292 135.313,11.292 135.313,62.093 125.153,62.093 125.153,58.706 121.767,58.706 121.767,51.933 118.38,51.933 
			118.38,45.159 114.994,45.159 114.994,38.386 111.606,38.386 111.606,34.999 108.22,34.999 108.22,62.093 		"/>
		<path fill="#88A822" stroke="#0000FF" d="M165.793,51.933v-30.48H148.86v30.48H165.793z M138.7,62.093v-50.8h33.867v3.386h3.387
			v44.027h-3.387v3.387H138.7z"/>
		<polygon fill="#88A822" stroke="#0000FF" points="182.728,62.093 182.728,58.706 179.342,58.706 179.342,14.679 182.728,14.679 
			182.728,11.292 216.595,11.292 216.595,21.453 189.501,21.453 189.501,31.612 206.435,31.612 206.435,41.772 189.501,41.772 
			189.501,51.933 216.595,51.933 216.595,62.093 		"/>
		<polygon fill="#88A822" stroke="#0000FF" points="219.981,62.093 219.981,11.292 230.141,11.292 230.141,14.679 233.528,14.679 
			233.528,21.453 236.915,21.453 236.915,28.226 240.302,28.226 240.302,34.999 243.688,34.999 243.688,28.226 247.074,28.226 
			247.074,21.453 250.462,21.453 250.462,14.679 253.849,14.679 253.849,11.292 264.008,11.292 264.008,62.093 253.849,62.093 
			253.849,34.999 250.462,34.999 250.462,38.386 247.074,38.386 247.074,45.159 243.688,45.159 243.688,48.546 240.302,48.546 
			240.302,45.159 236.915,45.159 236.915,38.386 233.528,38.386 233.528,34.999 230.141,34.999 230.141,62.093 		"/>
		<rect x="267.396" y="11.292" fill="#88A822" stroke="#0000FF" width="10.159" height="50.8"/>
		<polygon fill="#88A822" stroke="#0000FF" points="284.329,62.093 284.329,58.706 280.942,58.706 280.942,14.679 284.329,14.679 
			284.329,11.292 314.809,11.292 314.809,14.679 318.195,14.679 318.195,24.839 308.035,24.839 308.035,21.453 291.102,21.453 
			291.102,51.933 308.035,51.933 308.035,48.546 318.195,48.546 318.195,58.706 314.809,58.706 314.809,62.093 		"/>
		<rect x="142.087" y="76.317" fill="#88A822" stroke="#0000FF" width="10.16" height="50.8"/>
		<polygon fill="#88A822" stroke="#0000FF" points="159.021,127.117 159.021,123.731 155.634,123.731 155.634,113.571 
			165.793,113.571 165.793,116.958 182.728,116.958 182.728,106.798 159.021,106.798 159.021,103.411 155.634,103.411 
			155.634,79.704 159.021,79.704 159.021,76.317 189.501,76.317 189.501,79.704 192.888,79.704 192.888,89.863 182.728,89.863 
			182.728,86.478 165.793,86.478 165.793,96.638 189.501,96.638 189.501,100.024 192.888,100.024 192.888,123.731 189.501,123.731 
			189.501,127.117 		"/>
		<path fill="#88A822" stroke="#0000FF" d="M114.994,181.981v-30.48H98.06v30.48H114.994z M91.287,192.142v-3.386h-3.387v-44.027
			h3.387v-3.387h30.48v3.387h3.386v44.027h-3.386v3.386H91.287z"/>
		<polygon fill="#88A822" stroke="#0000FF" points="142.087,192.142 142.087,188.756 138.7,188.756 138.7,181.981 135.313,181.981 
			135.313,178.595 131.927,178.595 131.927,171.822 128.541,171.822 128.541,141.342 138.7,141.342 138.7,171.822 142.087,171.822 
			142.087,178.595 145.474,178.595 145.474,181.981 148.86,181.981 148.86,178.595 152.247,178.595 152.247,171.822 
			155.634,171.822 155.634,141.342 165.793,141.342 165.793,171.822 162.407,171.822 162.407,178.595 159.021,178.595 
			159.021,181.981 155.634,181.981 155.634,188.756 152.247,188.756 152.247,192.142 		"/>
		<polygon fill="#88A822" stroke="#0000FF" points="172.567,192.142 172.567,188.756 169.181,188.756 169.181,144.729 
			172.567,144.729 172.567,141.342 206.435,141.342 206.435,151.501 179.342,151.501 179.342,161.661 196.274,161.661 
			196.274,171.822 179.342,171.822 179.342,181.981 206.435,181.981 206.435,192.142 		"/>
		<path fill="#88A822" stroke="#0000FF" d="M236.915,161.661v-10.16h-16.934v10.16H236.915z M209.821,192.142v-50.8h33.866v3.387
			h3.387v20.32h-3.387v3.387h3.387v23.706h-10.159v-20.319h-16.934v20.319H209.821z"/>
	</g>
	<g>
		<path fill="#A3B51E" stroke="#0000FF" d="M41.122,30.052V19.666H23.811v10.386H41.122z M13.425,61.211V9.28h34.621v3.462h3.462
			v24.235h-3.462v3.462H23.811v20.772H13.425z"/>
		<path fill="#A3B51E" stroke="#0000FF" d="M82.667,30.052V19.666h-17.31v10.386H82.667z M54.97,61.211V12.742h3.462V9.28h31.159
			v3.462h3.462v48.469H82.667V40.438h-17.31v20.772H54.97z"/>
		<polygon fill="#A3B51E" stroke="#0000FF" points="96.515,61.211 96.515,9.28 106.901,9.28 106.901,12.742 110.363,12.742 
			110.363,19.666 113.825,19.666 113.825,26.59 117.287,26.59 117.287,33.514 120.75,33.514 120.75,36.977 124.211,36.977 
			124.211,9.28 134.598,9.28 134.598,61.211 124.211,61.211 124.211,57.749 120.75,57.749 120.75,50.825 117.287,50.825 
			117.287,43.9 113.825,43.9 113.825,36.977 110.363,36.977 110.363,33.514 106.901,33.514 106.901,61.211 		"/>
		<path fill="#A3B51E" stroke="#0000FF" d="M165.756,50.825V19.666h-17.31v31.159H165.756z M138.06,61.211V9.28h34.621v3.462h3.462
			v45.007h-3.462v3.462H138.06z"/>
		<polygon fill="#A3B51E" stroke="#0000FF" points="183.066,61.211 183.066,57.749 179.605,57.749 179.605,12.742 183.066,12.742 
			183.066,9.28 217.688,9.28 217.688,19.666 189.991,19.666 189.991,30.052 207.301,30.052 207.301,40.438 189.991,40.438 
			189.991,50.825 217.688,50.825 217.688,61.211 		"/>
		<polygon fill="#A3B51E" stroke="#0000FF" points="221.149,61.211 221.149,9.28 231.535,9.28 231.535,12.742 234.998,12.742 
			234.998,19.666 238.46,19.666 238.46,26.59 241.922,26.59 241.922,33.514 245.384,33.514 245.384,26.59 248.846,26.59 
			248.846,19.666 252.309,19.666 252.309,12.742 255.771,12.742 255.771,9.28 266.156,9.28 266.156,61.211 255.771,61.211 
			255.771,33.514 252.309,33.514 252.309,36.977 248.846,36.977 248.846,43.9 245.384,43.9 245.384,47.362 241.922,47.362 
			241.922,43.9 238.46,43.9 238.46,36.977 234.998,36.977 234.998,33.514 231.535,33.514 231.535,61.211 		"/>
		<rect x="269.619" y="9.28" fill="#A3B51E" stroke="#0000FF" width="10.386" height="51.931"/>
		<polygon fill="#A3B51E" stroke="#0000FF" points="286.93,61.211 286.93,57.749 283.467,57.749 283.467,12.742 286.93,12.742 
			286.93,9.28 318.088,9.28 318.088,12.742 321.55,12.742 321.55,23.128 311.163,23.128 311.163,19.666 293.853,19.666 
			293.853,50.825 311.163,50.825 311.163,47.362 321.55,47.362 321.55,57.749 318.088,57.749 318.088,61.211 		"/>
		<rect x="141.522" y="75.752" fill="#A3B51E" stroke="#0000FF" width="10.386" height="51.931"/>
		<polygon fill="#A3B51E" stroke="#0000FF" points="158.832,127.683 158.832,124.222 155.37,124.222 155.37,113.835 
			165.756,113.835 165.756,117.297 183.066,117.297 183.066,106.911 158.832,106.911 158.832,103.448 155.37,103.448 155.37,79.214 
			158.832,79.214 158.832,75.752 189.991,75.752 189.991,79.214 193.453,79.214 193.453,89.6 183.066,89.6 183.066,86.138 
			165.756,86.138 165.756,96.524 189.991,96.524 189.991,99.987 193.453,99.987 193.453,124.222 189.991,124.222 189.991,127.683 		
			"/>
		<path fill="#A3B51E" stroke="#0000FF" d="M113.825,183.768v-31.158h-17.31v31.158H113.825z M89.591,194.154v-3.462h-3.462v-45.006
			h3.462v-3.463h31.159v3.463h3.462v45.006h-3.462v3.462H89.591z"/>
		<polygon fill="#A3B51E" stroke="#0000FF" points="141.522,194.154 141.522,190.692 138.06,190.692 138.06,183.768 
			134.598,183.768 134.598,180.306 131.135,180.306 131.135,173.382 127.674,173.382 127.674,142.224 138.06,142.224 
			138.06,173.382 141.522,173.382 141.522,180.306 144.984,180.306 144.984,183.768 148.446,183.768 148.446,180.306 
			151.908,180.306 151.908,173.382 155.37,173.382 155.37,142.224 165.756,142.224 165.756,173.382 162.294,173.382 
			162.294,180.306 158.832,180.306 158.832,183.768 155.37,183.768 155.37,190.692 151.908,190.692 151.908,194.154 		"/>
		<polygon fill="#A3B51E" stroke="#0000FF" points="172.681,194.154 172.681,190.692 169.219,190.692 169.219,145.687 
			172.681,145.687 172.681,142.224 207.301,142.224 207.301,152.609 179.605,152.609 179.605,162.995 196.915,162.995 
			196.915,173.382 179.605,173.382 179.605,183.768 207.301,183.768 207.301,194.154 		"/>
		<path fill="#A3B51E" stroke="#0000FF" d="M238.46,162.995v-10.386h-17.311v10.386H238.46z M210.764,194.154v-51.931h34.62v3.463
			h3.462v20.771h-3.462v3.463h3.462v24.233H238.46v-20.772h-17.311v20.772H210.764z"/>
	</g>
	<g>
		<path fill="#BFC11A" stroke="#0000FF" d="M38.371,28.492V17.88H20.683v10.612H38.371z M10.071,60.329V7.267h35.374v3.538h3.538
			v24.763h-3.538v3.537H20.683v21.225H10.071z"/>
		<path fill="#BFC11A" stroke="#0000FF" d="M80.82,28.492V17.88H63.133v10.612H80.82z M52.52,60.329V10.805h3.538V7.267h31.837
			v3.538h3.538v49.524H80.82V39.104H63.133v21.225H52.52z"/>
		<polygon fill="#BFC11A" stroke="#0000FF" points="94.97,60.329 94.97,7.267 105.582,7.267 105.582,10.805 109.119,10.805 
			109.119,17.88 112.657,17.88 112.657,24.955 116.194,24.955 116.194,32.029 119.732,32.029 119.732,35.567 123.269,35.567 
			123.269,7.267 133.881,7.267 133.881,60.329 123.269,60.329 123.269,56.792 119.732,56.792 119.732,49.717 116.194,49.717 
			116.194,42.642 112.657,42.642 112.657,35.567 109.119,35.567 109.119,32.029 105.582,32.029 105.582,60.329 		"/>
		<path fill="#BFC11A" stroke="#0000FF" d="M165.718,49.717V17.88h-17.687v31.837H165.718z M137.419,60.329V7.267h35.374v3.538
			h3.538v45.987h-3.538v3.538H137.419z"/>
		<polygon fill="#BFC11A" stroke="#0000FF" points="183.405,60.329 183.405,56.792 179.869,56.792 179.869,10.805 183.405,10.805 
			183.405,7.267 218.78,7.267 218.78,17.88 190.48,17.88 190.48,28.492 208.168,28.492 208.168,39.104 190.48,39.104 190.48,49.717 
			218.78,49.717 218.78,60.329 		"/>
		<polygon fill="#BFC11A" stroke="#0000FF" points="222.318,60.329 222.318,7.267 232.93,7.267 232.93,10.805 236.468,10.805 
			236.468,17.88 240.006,17.88 240.006,24.955 243.542,24.955 243.542,32.029 247.08,32.029 247.08,24.955 250.617,24.955 
			250.617,17.88 254.155,17.88 254.155,10.805 257.692,10.805 257.692,7.267 268.304,7.267 268.304,60.329 257.692,60.329 
			257.692,32.029 254.155,32.029 254.155,35.567 250.617,35.567 250.617,42.642 247.08,42.642 247.08,46.179 243.542,46.179 
			243.542,42.642 240.006,42.642 240.006,35.567 236.468,35.567 236.468,32.029 232.93,32.029 232.93,60.329 		"/>
		<rect x="271.842" y="7.267" fill="#BFC11A" stroke="#0000FF" width="10.612" height="53.062"/>
		<polygon fill="#BFC11A" stroke="#0000FF" points="289.529,60.329 289.529,56.792 285.992,56.792 285.992,10.805 289.529,10.805 
			289.529,7.267 321.366,7.267 321.366,10.805 324.904,10.805 324.904,21.417 314.292,21.417 314.292,17.88 296.604,17.88 
			296.604,49.717 314.292,49.717 314.292,46.179 324.904,46.179 324.904,56.792 321.366,56.792 321.366,60.329 		"/>
		<rect x="140.957" y="75.187" fill="#BFC11A" stroke="#0000FF" width="10.612" height="53.062"/>
		<polygon fill="#BFC11A" stroke="#0000FF" points="158.644,128.248 158.644,124.711 155.106,124.711 155.106,114.1 165.718,114.1 
			165.718,117.636 183.405,117.636 183.405,107.023 158.644,107.023 158.644,103.486 155.106,103.486 155.106,78.724 
			158.644,78.724 158.644,75.187 190.48,75.187 190.48,78.724 194.018,78.724 194.018,89.336 183.405,89.336 183.405,85.799 
			165.718,85.799 165.718,96.412 190.48,96.412 190.48,99.949 194.018,99.949 194.018,124.711 190.48,124.711 190.48,128.248 		"/>
		<path fill="#BFC11A" stroke="#0000FF" d="M112.657,185.554v-31.836H94.97v31.836H112.657z M87.895,196.167v-3.537h-3.538v-45.986
			h3.538v-3.538h31.837v3.538h3.537v45.986h-3.537v3.537H87.895z"/>
		<polygon fill="#BFC11A" stroke="#0000FF" points="140.957,196.167 140.957,192.63 137.419,192.63 137.419,185.554 
			133.881,185.554 133.881,182.018 130.344,182.018 130.344,174.942 126.807,174.942 126.807,143.105 137.419,143.105 
			137.419,174.942 140.957,174.942 140.957,182.018 144.494,182.018 144.494,185.554 148.031,185.554 148.031,182.018 
			151.569,182.018 151.569,174.942 155.106,174.942 155.106,143.105 165.718,143.105 165.718,174.942 162.181,174.942 
			162.181,182.018 158.644,182.018 158.644,185.554 155.106,185.554 155.106,192.63 151.569,192.63 151.569,196.167 		"/>
		<polygon fill="#BFC11A" stroke="#0000FF" points="172.793,196.167 172.793,192.63 169.257,192.63 169.257,146.644 
			172.793,146.644 172.793,143.105 208.168,143.105 208.168,153.718 179.869,153.718 179.869,164.33 197.556,164.33 
			197.556,174.942 179.869,174.942 179.869,185.554 208.168,185.554 208.168,196.167 		"/>
		<path fill="#BFC11A" stroke="#0000FF" d="M240.006,164.33v-10.612h-17.688v10.612H240.006z M211.705,196.167v-53.062h35.375v3.538
			h3.537v21.225h-3.537v3.537h3.537v24.762h-10.611v-21.225h-17.688v21.225H211.705z"/>
	</g>
	<g>
		<path fill="#DACE16" stroke="#0000FF" d="M35.619,26.932V16.093H17.555v10.838H35.619z M6.716,59.447V5.255h36.128v3.613h3.613
			v25.29h-3.613v3.612h-25.29v21.677H6.716z"/>
		<path fill="#DACE16" stroke="#0000FF" d="M78.973,26.932V16.093H60.909v10.838H78.973z M50.07,59.447V8.868h3.613V5.255h32.515
			v3.613h3.613v50.58H78.973V37.77H60.909v21.677H50.07z"/>
		<polygon fill="#DACE16" stroke="#0000FF" points="93.425,59.447 93.425,5.255 104.263,5.255 104.263,8.868 107.875,8.868 
			107.875,16.093 111.489,16.093 111.489,23.319 115.101,23.319 115.101,30.544 118.714,30.544 118.714,34.158 122.327,34.158 
			122.327,5.255 133.166,5.255 133.166,59.447 122.327,59.447 122.327,55.834 118.714,55.834 118.714,48.608 115.101,48.608 
			115.101,41.383 111.489,41.383 111.489,34.158 107.875,34.158 107.875,30.544 104.263,30.544 104.263,59.447 		"/>
		<path fill="#DACE16" stroke="#0000FF" d="M165.68,48.608V16.093h-18.063v32.515H165.68z M136.778,59.447V5.255h36.128v3.613h3.613
			v46.966h-3.613v3.613H136.778z"/>
		<polygon fill="#DACE16" stroke="#0000FF" points="183.745,59.447 183.745,55.834 180.133,55.834 180.133,8.868 183.745,8.868 
			183.745,5.255 219.873,5.255 219.873,16.093 190.971,16.093 190.971,26.932 209.034,26.932 209.034,37.77 190.971,37.77 
			190.971,48.608 219.873,48.608 219.873,59.447 		"/>
		<polygon fill="#DACE16" stroke="#0000FF" points="223.486,59.447 223.486,5.255 234.324,5.255 234.324,8.868 237.938,8.868 
			237.938,16.093 241.551,16.093 241.551,23.319 245.163,23.319 245.163,30.544 248.775,30.544 248.775,23.319 252.389,23.319 
			252.389,16.093 256.002,16.093 256.002,8.868 259.614,8.868 259.614,5.255 270.452,5.255 270.452,59.447 259.614,59.447 
			259.614,30.544 256.002,30.544 256.002,34.158 252.389,34.158 252.389,41.383 248.775,41.383 248.775,44.996 245.163,44.996 
			245.163,41.383 241.551,41.383 241.551,34.158 237.938,34.158 237.938,30.544 234.324,30.544 234.324,59.447 		"/>
		<rect x="274.065" y="5.255" fill="#DACE16" stroke="#0000FF" width="10.839" height="54.192"/>
		<polygon fill="#DACE16" stroke="#0000FF" points="292.13,59.447 292.13,55.834 288.517,55.834 288.517,8.868 292.13,8.868 
			292.13,5.255 324.646,5.255 324.646,8.868 328.258,8.868 328.258,19.706 317.42,19.706 317.42,16.093 299.355,16.093 
			299.355,48.608 317.42,48.608 317.42,44.996 328.258,44.996 328.258,55.834 324.646,55.834 324.646,59.447 		"/>
		<rect x="140.391" y="74.622" fill="#DACE16" stroke="#0000FF" width="10.839" height="54.192"/>
		<polygon fill="#DACE16" stroke="#0000FF" points="158.455,128.813 158.455,125.201 154.842,125.201 154.842,114.363 
			165.68,114.363 165.68,117.976 183.745,117.976 183.745,107.137 158.455,107.137 158.455,103.523 154.842,103.523 154.842,78.234 
			158.455,78.234 158.455,74.622 190.971,74.622 190.971,78.234 194.583,78.234 194.583,89.072 183.745,89.072 183.745,85.46 
			165.68,85.46 165.68,96.298 190.971,96.298 190.971,99.911 194.583,99.911 194.583,125.201 190.971,125.201 190.971,128.813 		"/>
		<path fill="#DACE16" stroke="#0000FF" d="M111.489,187.341v-32.516H93.425v32.516H111.489z M86.199,198.179v-3.612h-3.613v-46.965
			h3.613v-3.614h32.516v3.614h3.613v46.965h-3.613v3.612H86.199z"/>
		<polygon fill="#DACE16" stroke="#0000FF" points="140.391,198.179 140.391,194.566 136.778,194.566 136.778,187.341 
			133.166,187.341 133.166,183.729 129.553,183.729 129.553,176.502 125.94,176.502 125.94,143.987 136.778,143.987 
			136.778,176.502 140.391,176.502 140.391,183.729 144.004,183.729 144.004,187.341 147.617,187.341 147.617,183.729 
			151.23,183.729 151.23,176.502 154.842,176.502 154.842,143.987 165.68,143.987 165.68,176.502 162.068,176.502 162.068,183.729 
			158.455,183.729 158.455,187.341 154.842,187.341 154.842,194.566 151.23,194.566 151.23,198.179 		"/>
		<polygon fill="#DACE16" stroke="#0000FF" points="172.906,198.179 172.906,194.566 169.294,194.566 169.294,147.602 
			172.906,147.602 172.906,143.987 209.034,143.987 209.034,154.825 180.133,154.825 180.133,165.664 198.196,165.664 
			198.196,176.502 180.133,176.502 180.133,187.341 209.034,187.341 209.034,198.179 		"/>
		<path fill="#DACE16" stroke="#0000FF" d="M241.551,165.664v-10.839h-18.064v10.839H241.551z M212.647,198.179v-54.191h36.128
			v3.614h3.613v21.676h-3.613v3.613h3.613v25.288h-10.838v-21.677h-18.064v21.677H212.647z"/>
	</g>
	<g>
		<path fill="#F5DB12" stroke="#0000FF" d="M32.868,25.372V14.307H14.427v11.065H32.868z M3.362,58.565V3.242h36.882v3.688h3.688
			v25.817h-3.688v3.688H14.427v22.129H3.362z"/>
		<path fill="#F5DB12" stroke="#0000FF" d="M77.126,25.372V14.307H58.686v11.065H77.126z M47.621,58.565V6.931h3.688V3.242h33.194
			v3.688h3.688v51.635H77.126V36.436H58.686v22.129H47.621z"/>
		<path fill="#F5DB12" stroke="#0000FF" d="M91.879,58.565V3.242h11.064v3.688h3.688v7.376h3.688v7.376h3.688v7.376h3.688v3.688
			h3.688V3.242h11.064v55.323h-11.064v-3.688h-3.688V47.5h-3.688v-7.376h-3.688v-7.376h-3.688V29.06h-3.688v29.506H91.879z"/>
		<path fill="#F5DB12" stroke="#0000FF" d="M165.643,47.5V14.307h-18.44V47.5H165.643z M136.138,58.565V3.242h36.882v3.688h3.688
			v47.946h-3.688v3.688H136.138z"/>
		<path fill="#F5DB12" stroke="#0000FF" d="M184.084,58.565v-3.688h-3.688V6.931h3.688V3.242h36.882v11.064h-29.505v11.065h18.44
			v11.064h-18.44V47.5h29.505v11.065H184.084z"/>
		<path fill="#F5DB12" stroke="#0000FF" d="M224.654,58.565V3.242h11.064v3.688h3.688v7.376h3.688v7.376h3.688v7.376h3.688v-7.376
			h3.688v-7.376h3.688V6.931h3.688V3.242h11.064v55.323h-11.064V29.06h-3.688v3.688h-3.688v7.376h-3.688v3.688h-3.688v-3.688h-3.688
			v-7.376h-3.688V29.06h-3.688v29.506H224.654z"/>
		<path fill="#F5DB12" stroke="#0000FF" d="M276.289,58.565V3.242h11.064v55.323H276.289z"/>
		<path fill="#F5DB12" stroke="#0000FF" d="M294.73,58.565v-3.688h-3.688V6.931h3.688V3.242h33.193v3.688h3.688v11.064h-11.064
			v-3.688h-18.441V47.5h18.441v-3.688h11.064v11.064h-3.688v3.688H294.73z"/>
		<path fill="#F5DB12" stroke="#0000FF" d="M139.826,129.379V74.056h11.065v55.323H139.826z"/>
		<path fill="#F5DB12" stroke="#0000FF" d="M158.267,129.379v-3.688h-3.688v-11.064h11.064v3.688h18.441V107.25h-25.817v-3.688
			h-3.688V77.744h3.688v-3.688h33.194v3.688h3.688v11.064h-11.064v-3.688h-18.441v11.064h25.818v3.688h3.688v25.818h-3.688v3.688
			H158.267z"/>
		<path fill="#F5DB12" stroke="#0000FF" d="M110.32,189.127v-33.193H91.879v33.193H110.32z M84.503,200.191v-3.688h-3.688v-47.945
			h3.688v-3.689h33.194v3.689h3.688v47.945h-3.688v3.688H84.503z"/>
		<path fill="#F5DB12" stroke="#0000FF" d="M139.826,200.191v-3.688h-3.688v-7.377h-3.688v-3.688h-3.688v-7.377h-3.688v-33.193
			h11.064v33.193h3.688v7.377h3.688v3.688h3.688v-3.688h3.688v-7.377h3.688v-33.193h11.064v33.193h-3.688v7.377h-3.688v3.688h-3.688
			v7.377h-3.688v3.688H139.826z"/>
		<path fill="#F5DB12" stroke="#0000FF" d="M173.02,200.191v-3.688h-3.688v-47.945h3.688v-3.689h36.882v11.064h-29.505v11.064h18.44
			v11.064h-18.44v11.064h29.505v11.064H173.02z"/>
		<path fill="#F5DB12" stroke="#0000FF" d="M243.096,166.998v-11.064h-18.441v11.064H243.096z M213.59,200.191v-55.322h36.882v3.689
			h3.688v22.129h-3.688v3.688h3.688v25.816h-11.064v-22.129h-18.441v22.129H213.59z"/>
	</g>
</g>
<g>
	<path fill="#5AADC5" stroke="#00FFFF" d="M8.862,311.379v-33.75h6.75v13.5h11.25v-13.5h6.75v33.75h-6.75v-13.5h-11.25v13.5H8.862z"
		/>
	<path fill="#5AADC5" stroke="#00FFFF" d="M38.112,311.379v-2.25h-2.25v-31.5h6.75v27h11.25v-27h6.75v31.5h-2.25v2.25H38.112z"/>
	<path fill="#5AADC5" stroke="#00FFFF" d="M62.862,311.379v-33.75h6.75v2.25h2.25v4.5h2.25v4.5h2.25v4.5h2.25v-4.5h2.25v-4.5h2.25
		v-4.5h2.25v-2.25h6.75v33.75h-6.75v-18h-2.25v2.25h-2.25v4.5h-2.25v2.25h-2.25v-2.25h-2.25v-4.5h-2.25v-2.25h-2.25v18H62.862z"/>
	<path fill="#5AADC5" stroke="#00FFFF" d="M94.362,311.379v-31.5h2.25v-2.25h20.25v2.25h2.25v31.5h-6.75v-13.5h-11.25v13.5H94.362z
		 M112.362,291.129v-6.75h-11.25v6.75H112.362z"/>
	<path fill="#5AADC5" stroke="#00FFFF" d="M121.362,311.379v-33.75h6.75v2.25h2.25v4.5h2.25v4.5h2.25v4.5h2.25v2.25h2.25v-18h6.75
		v33.75h-6.75v-2.25h-2.25v-4.5h-2.25v-4.5h-2.25v-4.5h-2.25v-2.25h-2.25v18H121.362z"/>
	<path fill="#5AADC5" stroke="#00FFFF" d="M148.362,311.379v-33.75h6.75v33.75H148.362z"/>
	<path fill="#5AADC5" stroke="#00FFFF" d="M166.362,311.379v-27h-9v-6.75h24.75v6.75h-9v27H166.362z"/>
	<path fill="#5AADC5" stroke="#00FFFF" d="M186.612,311.379v-2.25h-2.25v-6.75h6.75v2.25h11.25v-6.75h-15.75v-2.25h-2.25v-18h6.75
		v13.5h11.25v-13.5h6.75v31.5h-2.25v2.25H186.612z"/>
	<path fill="#5AADC5" stroke="#00FFFF" d="M222.612,311.379v-33.75h6.75v18h2.25v-2.25h2.25v-4.5h2.25v-2.25h2.25v2.25h2.25v4.5
		h2.25v2.25h2.25v-18h6.75v33.75h-6.75v-2.25h-2.25v-4.5h-2.25v-4.5h-2.25v-4.5h-2.25v4.5h-2.25v4.5h-2.25v4.5h-2.25v2.25H222.612z"
		/>
	<path fill="#5AADC5" stroke="#00FFFF" d="M254.112,311.379v-33.75h6.75v33.75H254.112z"/>
	<path fill="#5AADC5" stroke="#00FFFF" d="M263.112,311.379v-33.75h6.75v2.25h2.25v4.5h2.25v4.5h2.25v4.5h2.25v2.25h2.25v-18h6.75
		v33.75h-6.75v-2.25h-2.25v-4.5h-2.25v-4.5h-2.25v-4.5h-2.25v-2.25h-2.25v18H263.112z"/>
	<path fill="#5AADC5" stroke="#00FFFF" d="M292.362,311.379v-2.25h-2.25v-6.75h6.75v2.25h11.25v-6.75h-15.75v-2.25h-2.25v-15.75
		h2.25v-2.25h20.25v2.25h2.25v6.75h-6.75v-2.25h-11.25v6.75h15.75v2.25h2.25v15.75h-2.25v2.25H292.362z"/>
	<path fill="#5AADC5" stroke="#00FFFF" d="M317.112,300.129v-22.5h6.75v22.5H317.112z M317.112,311.379v-6.75h6.75v6.75H317.112z"/>
</g>
</svg>
